<svg width="85" height="84" viewBox="0 0 85 84" fill="none" xmlns="http://www.w3.org/2000/svg">
<path d="M59.959 0.333313H25.0423C9.87565 0.333313 0.833984 9.37498 0.833984 24.5416V59.4166C0.833984 74.625 9.87565 83.6666 25.0423 83.6666H59.9173C75.084 83.6666 84.1256 74.625 84.1256 59.4583V24.5416C84.1673 9.37498 75.1256 0.333313 59.959 0.333313ZM59.1673 45.125H45.6256V58.6666C45.6256 60.375 44.209 61.7916 42.5006 61.7916C40.7923 61.7916 39.3756 60.375 39.3756 58.6666V45.125H25.834C24.1257 45.125 22.709 43.7083 22.709 42C22.709 40.2916 24.1257 38.875 25.834 38.875H39.3756V25.3333C39.3756 23.625 40.7923 22.2083 42.5006 22.2083C44.209 22.2083 45.6256 23.625 45.6256 25.3333V38.875H59.1673C60.8756 38.875 62.2923 40.2916 62.2923 42C62.2923 43.7083 60.8756 45.125 59.1673 45.125Z" fill="#0391FE"/>
</svg>
