<svg width="361" height="345" viewBox="0 0 361 345" fill="none" xmlns="http://www.w3.org/2000/svg">
    <g clip-path="url(#clip0_623_574)">
        <path d="M190.236 328.965C186.536 328.965 182.934 328.188 180.306 326.73L64.1586 259.771C61.53 258.313 60.167 256.175 60.167 253.94C60.167 251.219 62.2115 248.4 65.8137 246.36L178.651 181.344C185.368 177.457 195.688 177.068 201.529 180.372L317.676 247.331C320.305 248.789 321.668 250.927 321.668 253.162C321.668 255.883 319.624 258.702 316.021 260.743L203.185 325.758C199.485 327.799 194.714 328.965 190.236 328.965ZM191.599 178.429C187.218 178.429 182.545 179.498 178.943 181.636L66.0084 246.651C62.6009 248.595 60.5564 251.219 60.5564 253.843C60.5564 255.981 61.9194 257.924 64.3533 259.285L180.5 326.244C186.244 329.548 196.272 329.16 202.892 325.272L315.729 260.257C319.137 258.313 321.181 255.689 321.181 253.065C321.181 250.927 319.818 248.983 317.384 247.623L201.237 180.664C198.706 179.206 195.201 178.429 191.599 178.429Z" fill="#F2C94C"/>
        <path opacity="0.3" d="M161.32 244.318C214.336 244.318 257.314 219.561 257.314 189.021C257.314 158.482 214.336 133.724 161.32 133.724C108.304 133.724 65.3262 158.482 65.3262 189.021C65.3262 219.561 108.304 244.318 161.32 244.318Z" fill="url(#paint0_radial_623_574)"/>
        <path opacity="0.3" d="M265.006 344.903C318.022 344.903 361 320.146 361 289.606C361 259.066 318.022 234.309 265.006 234.309C211.99 234.309 169.012 259.066 169.012 289.606C169.012 320.146 211.99 344.903 265.006 344.903Z" fill="url(#paint1_radial_623_574)"/>
        <path opacity="0.3" d="M73.7967 281.831C114.553 281.831 147.593 262.774 147.593 239.265C147.593 215.756 114.553 196.699 73.7967 196.699C33.0399 196.699 0 215.756 0 239.265C0 262.774 33.0399 281.831 73.7967 281.831Z" fill="url(#paint2_radial_623_574)"/>
        <path d="M162.197 199.711C167.036 199.711 170.959 195.795 170.959 190.965C170.959 186.134 167.036 182.218 162.197 182.218C157.358 182.218 153.435 186.134 153.435 190.965C153.435 195.795 157.358 199.711 162.197 199.711Z" fill="url(#paint3_radial_623_574)"/>
        <path d="M164.631 190.965C164.631 192.325 163.56 193.492 162.1 193.492C160.737 193.492 159.568 192.423 159.568 190.965C159.568 189.604 160.639 188.438 162.1 188.438C163.56 188.535 164.631 189.604 164.631 190.965Z" fill="#6EE8FC"/>
        <path d="M73.7963 250.733C78.6355 250.733 82.5585 246.817 82.5585 241.986C82.5585 237.156 78.6355 233.24 73.7963 233.24C68.9571 233.24 65.0342 237.156 65.0342 241.986C65.0342 246.817 68.9571 250.733 73.7963 250.733Z" fill="url(#paint4_radial_623_574)"/>
        <path d="M76.3272 241.986C76.3272 243.347 75.2563 244.513 73.7959 244.513C72.4329 244.513 71.2646 243.444 71.2646 241.986C71.2646 240.626 72.3356 239.459 73.7959 239.459C75.1589 239.557 76.3272 240.626 76.3272 241.986Z" fill="#F2C94C"/>
        <path d="M265.59 298.255C270.429 298.255 274.352 294.339 274.352 289.509C274.352 284.678 270.429 280.762 265.59 280.762C260.751 280.762 256.828 284.678 256.828 289.509C256.828 294.339 260.751 298.255 265.59 298.255Z" fill="url(#paint5_radial_623_574)"/>
        <path d="M265.59 292.035C266.988 292.035 268.121 290.904 268.121 289.509C268.121 288.113 266.988 286.982 265.59 286.982C264.192 286.982 263.059 288.113 263.059 289.509C263.059 290.904 264.192 292.035 265.59 292.035Z" fill="#F2C94C"/>
        <path d="M281.849 288.634C286.688 288.634 290.611 284.718 290.611 279.888C290.611 275.057 286.688 271.141 281.849 271.141C277.01 271.141 273.087 275.057 273.087 279.888C273.087 284.718 277.01 288.634 281.849 288.634Z" fill="url(#paint6_radial_623_574)"/>
        <path d="M284.38 279.888C284.38 281.248 283.309 282.414 281.849 282.414C280.486 282.414 279.317 281.345 279.317 279.888C279.317 278.527 280.388 277.361 281.849 277.361C283.212 277.458 284.38 278.527 284.38 279.888Z" fill="#F2C94C"/>
        <path d="M298.108 279.207C302.947 279.207 306.87 275.291 306.87 270.461C306.87 265.63 302.947 261.714 298.108 261.714C293.269 261.714 289.346 265.63 289.346 270.461C289.346 275.291 293.269 279.207 298.108 279.207Z" fill="url(#paint7_radial_623_574)"/>
        <path d="M300.639 270.461C300.639 271.821 299.568 272.988 298.107 272.988C296.744 272.988 295.576 271.919 295.576 270.461C295.576 269.003 296.647 267.934 298.107 267.934C299.47 268.031 300.639 269.1 300.639 270.461Z" fill="#F2C94C"/>
        <path d="M179.818 307.39L97.0647 259.674C90.7364 256.078 91.6127 249.761 98.8171 245.582L178.066 199.906C185.368 195.727 196.272 195.241 202.6 198.934L285.353 246.651C291.681 250.247 290.805 256.564 283.601 260.743L204.352 306.419C197.148 310.598 186.146 310.986 179.818 307.39Z" fill="#211E00"/>
        <path d="M300.151 204.376V187.272H256.049L203.865 157.243C196.855 153.258 184.783 153.744 176.703 158.409L126.466 187.369H82.2662V205.445C82.0715 208.167 83.6292 210.791 86.9394 212.734L178.552 265.602C185.562 269.586 197.634 269.1 205.715 264.436L293.434 213.9C298.204 210.985 300.443 207.584 300.151 204.376Z" fill="#312A91"/>
        <path opacity="0.5" d="M300.151 204.376V187.272H256.049L203.865 157.243C196.855 153.258 184.783 153.744 176.703 158.409L126.466 187.369H82.2662V205.445C82.0715 208.167 83.6292 210.791 86.9394 212.734L178.552 265.602C185.562 269.586 197.634 269.1 205.715 264.436L293.434 213.9C298.204 210.985 300.443 207.584 300.151 204.376Z" fill="url(#paint8_linear_623_574)"/>
        <g style="mix-blend-mode:overlay">
            <path d="M101.531 216.51V218.348L96.2586 215.304V213.466L101.531 216.51ZM96.9252 204.252V215.689L94.8844 214.511V203.073L96.9252 204.252ZM100.844 211.172V212.963L96.2586 210.316V208.525L100.844 211.172ZM101.524 206.907V208.753L96.2586 205.713V203.867L101.524 206.907ZM107.175 217.53L104.651 216.073V214.234L107.175 215.692C107.565 215.917 107.882 216.027 108.127 216.021C108.372 216.011 108.551 215.905 108.665 215.703C108.778 215.502 108.835 215.233 108.835 214.898C108.835 214.558 108.778 214.208 108.665 213.849C108.551 213.491 108.372 213.152 108.127 212.832C107.882 212.513 107.565 212.24 107.175 212.015L105.359 210.967V220.558L103.318 219.38V207.942L107.175 210.169C107.95 210.617 108.615 211.163 109.168 211.807C109.726 212.449 110.152 213.137 110.447 213.873C110.742 214.609 110.889 215.341 110.889 216.069C110.889 216.807 110.742 217.361 110.447 217.73C110.152 218.099 109.726 218.269 109.168 218.241C108.615 218.214 107.95 217.977 107.175 217.53ZM115.064 214.724V226.161L113.03 224.987V213.55L115.064 214.724ZM123.314 227.13L125.348 228.305C125.307 229.051 125.123 229.628 124.797 230.037C124.475 230.448 124.024 230.653 123.443 230.653C122.867 230.656 122.173 230.423 121.361 229.954C120.726 229.588 120.157 229.133 119.654 228.591C119.15 228.044 118.72 227.429 118.361 226.745C118.008 226.065 117.738 225.333 117.552 224.55C117.366 223.767 117.273 222.956 117.273 222.119V221.325C117.273 220.487 117.368 219.786 117.559 219.22C117.754 218.652 118.03 218.233 118.388 217.963C118.751 217.696 119.184 217.579 119.688 217.614C120.191 217.648 120.754 217.844 121.375 218.203C122.2 218.679 122.897 219.254 123.463 219.927C124.035 220.602 124.477 221.334 124.79 222.122C125.107 222.913 125.298 223.714 125.361 224.526L123.321 223.348C123.298 222.874 123.219 222.438 123.082 222.04C122.946 221.637 122.74 221.274 122.463 220.952C122.191 220.627 121.828 220.334 121.375 220.072C121.035 219.876 120.738 219.778 120.484 219.778C120.23 219.778 120.017 219.877 119.844 220.076C119.672 220.275 119.543 220.578 119.457 220.983C119.375 221.387 119.334 221.892 119.334 222.5V223.309C119.334 223.9 119.373 224.444 119.45 224.939C119.527 225.428 119.645 225.873 119.803 226.274C119.967 226.672 120.175 227.023 120.429 227.327C120.688 227.628 120.999 227.883 121.361 228.092C121.788 228.339 122.139 228.463 122.416 228.466C122.692 228.468 122.903 228.357 123.048 228.132C123.198 227.909 123.287 227.575 123.314 227.13ZM135.228 232.783L132.684 231.315L132.67 229.688L134.806 230.922C135.183 231.139 135.491 231.262 135.731 231.291C135.972 231.315 136.151 231.253 136.269 231.106C136.391 230.957 136.453 230.725 136.453 230.411C136.453 230.055 136.394 229.733 136.276 229.445C136.162 229.16 135.983 228.896 135.738 228.656C135.498 228.417 135.187 228.188 134.806 227.968L133.391 227.151V236.743L131.35 235.564V224.127L134.806 226.122C135.382 226.455 135.897 226.815 136.35 227.202C136.809 227.592 137.196 228.007 137.514 228.447C137.831 228.887 138.074 229.352 138.242 229.842C138.409 230.326 138.493 230.835 138.493 231.37C138.493 231.841 138.4 232.222 138.214 232.512C138.033 232.806 137.745 232.964 137.35 232.988C136.96 233.014 136.45 232.858 135.82 232.52L135.228 232.783ZM135.14 237.752L132.126 236.012L132.922 234.633L135.14 235.914C135.498 236.121 135.79 236.224 136.017 236.224C136.244 236.219 136.412 236.132 136.521 235.965C136.629 235.797 136.684 235.564 136.684 235.266C136.684 234.931 136.634 234.611 136.534 234.307C136.439 234.006 136.285 233.729 136.072 233.475C135.858 233.216 135.577 232.985 135.228 232.783L133.262 231.648L133.276 230.038L135.725 231.452L136.194 232.359C136.797 232.697 137.282 233.1 137.65 233.569C138.022 234.035 138.292 234.518 138.459 235.018C138.632 235.521 138.718 236.003 138.718 236.464C138.718 237.197 138.58 237.735 138.303 238.078C138.026 238.416 137.62 238.556 137.085 238.498C136.555 238.443 135.906 238.194 135.14 237.752ZM148.981 239.758V240.3C148.981 241.169 148.879 241.89 148.675 242.464C148.471 243.037 148.183 243.46 147.811 243.732C147.439 244 146.995 244.112 146.478 244.07C145.965 244.031 145.396 243.831 144.77 243.469C144.149 243.111 143.58 242.654 143.063 242.099C142.55 241.546 142.106 240.92 141.729 240.221C141.353 239.517 141.06 238.759 140.852 237.947C140.648 237.138 140.546 236.299 140.546 235.429V234.887C140.546 234.013 140.648 233.291 140.852 232.723C141.056 232.15 141.344 231.727 141.716 231.455C142.092 231.185 142.537 231.07 143.049 231.109C143.566 231.151 144.135 231.351 144.757 231.71C145.382 232.071 145.952 232.528 146.464 233.081C146.981 233.636 147.426 234.264 147.798 234.966C148.174 235.67 148.464 236.427 148.668 237.236C148.877 238.043 148.981 238.883 148.981 239.758ZM146.92 239.11V238.552C146.92 237.944 146.872 237.383 146.777 236.867C146.682 236.351 146.541 235.882 146.355 235.461C146.169 235.039 145.943 234.673 145.675 234.361C145.407 234.044 145.101 233.786 144.757 233.587C144.412 233.388 144.106 233.293 143.838 233.301C143.575 233.306 143.351 233.412 143.165 233.619C142.983 233.828 142.845 234.136 142.75 234.542C142.655 234.948 142.607 235.454 142.607 236.062V236.619C142.607 237.222 142.655 237.783 142.75 238.304C142.845 238.82 142.986 239.292 143.172 239.718C143.357 240.14 143.584 240.509 143.852 240.826C144.119 241.143 144.426 241.401 144.77 241.6C145.115 241.799 145.421 241.894 145.689 241.886C145.956 241.879 146.181 241.77 146.362 241.56C146.544 241.346 146.682 241.035 146.777 240.63C146.872 240.219 146.92 239.712 146.92 239.11ZM152.578 236.383L154.442 241.449L156.306 238.535L158.639 239.882L155.761 243.892L158.714 251.363L156.36 250.004L154.442 244.827L152.523 247.788L150.156 246.422L153.115 242.364L150.231 235.028L152.578 236.383Z" fill="#FFD861"/>
        </g>
        <path d="M203.865 157.145C200.555 155.202 195.979 154.327 191.209 154.424V268.031C196.272 267.934 201.626 266.671 205.813 264.241L293.531 213.706C298.204 210.985 300.444 207.583 300.152 204.376V187.272H256.049L203.865 157.145Z" fill="url(#paint9_linear_623_574)"/>
        <path d="M178.65 247.331L87.0375 194.464C80.0278 190.479 80.904 183.482 88.9846 178.817L176.703 128.282C184.784 123.617 196.954 123.131 203.866 127.116L295.479 179.983C302.489 183.968 301.612 190.965 293.532 195.63L205.813 246.165C197.732 250.83 185.563 251.316 178.65 247.331Z" fill="#312A91"/>
        <path opacity="0.5" d="M178.65 247.331L87.0375 194.464C80.0278 190.479 80.904 183.482 88.9846 178.817L176.703 128.282C184.784 123.617 196.954 123.131 203.866 127.116L295.479 179.983C302.489 183.968 301.612 190.965 293.532 195.63L205.813 246.165C197.732 250.83 185.563 251.316 178.65 247.331Z" fill="url(#paint10_linear_623_574)"/>
        <path d="M181.084 235.669L107.19 193.103C101.543 189.896 102.322 184.259 108.748 180.469L179.429 139.75C185.952 136.057 195.688 135.571 201.334 138.875L275.228 181.441C280.875 184.648 280.096 190.285 273.671 194.075L202.989 234.795C196.466 238.488 186.731 238.876 181.084 235.669Z" fill="#F2C94C"/>
        <path d="M108.845 186.009L179.526 145.289C186.049 141.596 195.785 141.11 201.431 144.414L275.325 186.981C276.688 187.758 277.662 188.73 278.343 189.799C279.998 186.786 279.025 183.676 275.325 181.538L201.431 138.972C195.785 135.765 186.049 136.154 179.526 139.847L108.845 180.567C103.977 183.385 102.322 187.272 104.269 190.382C105.048 188.827 106.605 187.272 108.845 186.009Z" fill="#FFD760"/>
        <path opacity="0.5" d="M181.668 247.331L90.0553 194.464C83.0456 190.479 81.3905 184.551 92.0024 178.817L179.721 128.282C183.713 126.047 188.581 124.686 193.448 124.492C187.704 124.2 181.474 125.561 176.606 128.282L88.887 178.817C80.8063 183.482 79.9301 190.479 86.9398 194.464L178.553 247.331C182.058 249.372 187.023 250.247 191.988 249.955C188.191 249.858 184.492 248.983 181.668 247.331Z" fill="url(#paint11_linear_623_574)"/>
        <path opacity="0.5" d="M293.531 203.307L205.812 253.842C197.732 258.507 185.562 258.993 178.65 255.009L86.9394 202.141C83.6292 200.197 82.0715 197.573 82.2662 194.852V198.545C82.0715 201.266 83.6292 203.89 86.9394 205.834L178.552 258.701C185.562 262.686 197.634 262.2 205.715 257.535L293.434 207C298.107 204.279 300.346 200.878 300.054 197.67V193.978C300.443 197.185 298.204 200.586 293.531 203.307Z" fill="url(#paint12_linear_623_574)"/>
        <path d="M277.662 198.254C278.636 198.837 278.636 199.809 277.662 200.294C276.689 200.878 275.034 200.878 274.06 200.294C273.087 199.711 273.087 198.74 274.06 198.254C275.034 197.768 276.592 197.768 277.662 198.254Z" fill="#FCCC6B"/>
        <path d="M283.309 195.047C284.283 195.63 284.283 196.602 283.309 197.088C282.335 197.573 280.68 197.671 279.707 197.088C278.733 196.504 278.733 195.533 279.707 195.047C280.68 194.464 282.238 194.464 283.309 195.047Z" fill="#FCCC6B"/>
        <path d="M288.955 191.84C289.929 192.423 289.929 193.395 288.955 193.881C287.982 194.464 286.327 194.464 285.353 193.881C284.38 193.297 284.38 192.326 285.353 191.84C286.327 191.354 287.884 191.257 288.955 191.84Z" fill="#FCCC6B"/>
        <g style="mix-blend-mode:overlay">
            <path d="M223.491 249.135L223.189 250.948L217.917 253.992L218.219 252.179L223.491 249.135ZM220.465 242.325L218.583 253.607L216.542 254.785L218.424 243.504L220.465 242.325ZM223.617 244.658L223.322 246.424L218.737 249.071L219.032 247.305L223.617 244.658ZM225.064 239.67L224.76 241.491L219.495 244.531L219.798 242.71L225.064 239.67ZM229.504 243.668L226.98 245.125L227.282 243.312L229.806 241.855C230.196 241.629 230.526 241.374 230.795 241.088C231.065 240.797 231.278 240.487 231.436 240.158C231.593 239.829 231.699 239.499 231.754 239.168C231.81 238.833 231.806 238.553 231.741 238.329C231.675 238.105 231.535 237.976 231.32 237.942C231.104 237.908 230.801 238.003 230.411 238.228L228.595 239.277L227.017 248.738L224.976 249.916L226.858 238.635L230.715 236.408C231.49 235.96 232.128 235.736 232.628 235.737C233.133 235.73 233.487 235.921 233.688 236.308C233.89 236.696 233.931 237.249 233.811 237.967C233.69 238.695 233.437 239.41 233.054 240.113C232.67 240.815 232.175 241.472 231.569 242.083C230.968 242.692 230.279 243.22 229.504 243.668ZM238.604 231.853L236.722 243.134L234.688 244.309L236.57 233.027L238.604 231.853ZM245.596 234.629L247.63 233.454C247.463 234.237 247.167 235.018 246.742 235.795C246.322 236.57 245.794 237.29 245.158 237.956C244.527 238.619 243.805 239.185 242.994 239.653C242.359 240.02 241.81 240.225 241.348 240.267C240.887 240.305 240.516 240.192 240.236 239.929C239.961 239.663 239.786 239.251 239.711 238.692C239.636 238.133 239.668 237.44 239.806 236.613L239.936 235.831C240.074 235.004 240.294 234.203 240.596 233.427C240.903 232.643 241.274 231.912 241.711 231.235C242.152 230.556 242.646 229.944 243.191 229.4C243.737 228.856 244.321 228.405 244.942 228.046C245.767 227.57 246.435 227.338 246.945 227.352C247.46 227.363 247.823 227.578 248.036 227.996C248.254 228.412 248.331 228.984 248.267 229.712L246.226 230.89C246.279 230.449 246.264 230.11 246.18 229.873C246.098 229.632 245.931 229.51 245.681 229.51C245.437 229.502 245.088 229.629 244.634 229.891C244.294 230.087 243.985 230.331 243.707 230.622C243.429 230.913 243.179 231.256 242.958 231.65C242.736 232.044 242.545 232.49 242.384 232.989C242.228 233.481 242.1 234.026 242 234.625L241.867 235.423C241.77 236.007 241.723 236.499 241.726 236.899C241.729 237.293 241.785 237.597 241.893 237.81C242.006 238.015 242.177 238.122 242.405 238.131C242.639 238.131 242.937 238.027 243.3 237.817C243.726 237.571 244.091 237.291 244.393 236.976C244.696 236.661 244.945 236.31 245.141 235.921C245.341 235.53 245.493 235.099 245.596 234.629ZM257.712 226.541L255.168 228.01L255.42 226.422L257.556 225.189C257.933 224.972 258.25 224.739 258.509 224.492C258.768 224.24 258.974 223.973 259.128 223.694C259.286 223.406 259.391 223.107 259.443 222.797C259.502 222.446 259.49 222.196 259.408 222.047C259.331 221.895 259.178 221.841 258.95 221.885C258.726 221.925 258.423 222.056 258.042 222.275L256.627 223.092L255.049 232.553L253.008 233.731L254.89 222.45L258.346 220.455C258.922 220.122 259.426 219.887 259.859 219.749C260.297 219.609 260.653 219.573 260.928 219.643C261.203 219.713 261.393 219.893 261.496 220.184C261.6 220.469 261.608 220.875 261.52 221.402C261.443 221.867 261.278 222.349 261.027 222.849C260.78 223.346 260.438 223.833 260.002 224.309C259.571 224.782 259.038 225.213 258.403 225.603L257.712 226.541ZM256.798 231.544L253.784 233.284L254.882 231.011L257.1 229.731C257.458 229.524 257.762 229.29 258.01 229.03C258.259 228.765 258.457 228.487 258.604 228.197C258.751 227.907 258.848 227.615 258.898 227.32C258.953 226.99 258.951 226.732 258.891 226.547C258.837 226.359 258.713 226.262 258.522 226.256C258.331 226.245 258.061 226.34 257.712 226.541L255.746 227.677L256.026 226.073L258.475 224.659L258.839 225.015C259.444 224.657 259.909 224.498 260.235 224.539C260.565 224.572 260.781 224.739 260.883 225.04C260.988 225.338 261.004 225.715 260.928 226.169C260.807 226.892 260.567 227.582 260.208 228.237C259.849 228.888 259.382 229.492 258.805 230.048C258.233 230.603 257.564 231.101 256.798 231.544ZM271.624 217.648L271.535 218.183C271.392 219.04 271.161 219.869 270.844 220.668C270.526 221.468 270.141 222.215 269.689 222.911C269.238 223.6 268.732 224.221 268.173 224.773C267.619 225.322 267.028 225.777 266.402 226.138C265.781 226.497 265.233 226.699 264.758 226.745C264.288 226.787 263.904 226.68 263.607 226.422C263.311 226.159 263.115 225.747 263.02 225.185C262.93 224.621 262.956 223.91 263.099 223.053L263.188 222.518C263.332 221.656 263.563 220.827 263.88 220.033C264.198 219.233 264.583 218.486 265.035 217.79C265.491 217.093 265.997 216.469 266.551 215.92C267.111 215.369 267.701 214.914 268.322 214.555C268.948 214.193 269.496 213.991 269.966 213.949C270.441 213.903 270.825 214.013 271.116 214.279C271.413 214.542 271.606 214.956 271.696 215.52C271.792 216.076 271.768 216.785 271.624 217.648ZM269.474 219.373L269.565 218.823C269.665 218.223 269.706 217.724 269.686 217.324C269.667 216.925 269.59 216.624 269.456 216.421C269.321 216.219 269.133 216.117 268.892 216.117C268.651 216.111 268.358 216.208 268.013 216.407C267.669 216.606 267.349 216.862 267.055 217.177C266.766 217.484 266.503 217.846 266.265 218.263C266.032 218.678 265.83 219.14 265.659 219.65C265.488 220.159 265.352 220.714 265.252 221.313L265.161 221.863C265.061 222.457 265.021 222.956 265.04 223.361C265.059 223.761 265.136 224.064 265.269 224.272C265.403 224.475 265.591 224.579 265.832 224.584C266.073 224.59 266.365 224.493 266.71 224.294C267.055 224.095 267.374 223.838 267.668 223.524C267.963 223.209 268.226 222.845 268.46 222.43C268.694 222.01 268.896 221.545 269.067 221.036C269.239 220.521 269.375 219.967 269.474 219.373ZM276.118 210.194L277.325 213.054L279.846 208.042L282.179 206.695L278.368 213.95L280.372 217.933L278.018 219.292L276.769 216.386L274.181 221.507L271.814 222.874L275.722 215.478L273.771 211.549L276.118 210.194Z" fill="#EFF24C"/>
        </g>
        <path opacity="0.5" d="M183.226 225.368L125.298 191.937C120.917 189.41 121.404 184.94 126.564 182.024L182.058 150.051C187.12 147.136 194.811 146.844 199.192 149.371L257.12 182.802C261.501 185.329 261.014 189.799 255.854 192.714L200.361 224.688C195.396 227.603 187.704 227.895 183.226 225.368Z" fill="#0B0244"/>
        <path opacity="0.5" d="M300.151 187.272C300.151 186.981 300.151 186.592 300.151 186.3V138.583L224.213 138.875L203.865 127.116C196.855 123.131 184.783 123.617 176.703 128.282L157.718 139.264L82.2662 139.555V187.272C82.0715 189.993 83.6292 192.617 86.9394 194.561L178.552 247.428C185.562 251.413 197.634 250.927 205.715 246.262L293.434 195.727C297.717 193.2 299.957 190.188 300.151 187.272Z" fill="#F2C94C"/>
        <path d="M300.151 138.584V121.479H256.049L203.865 91.4497C196.855 87.4652 184.783 87.9511 176.703 92.6159L126.466 121.479H82.2662V139.555C82.0715 142.276 83.6292 144.9 86.9394 146.844L178.552 199.712C185.562 203.696 197.634 203.21 205.715 198.545L293.434 148.01C298.204 145.289 300.443 141.791 300.151 138.584Z" fill="#312A91"/>
        <path opacity="0.5" d="M300.151 138.584V121.479H256.049L203.865 91.4497C196.855 87.4652 184.783 87.9511 176.703 92.6159L126.466 121.479H82.2662V139.555C82.0715 142.276 83.6292 144.9 86.9394 146.844L178.552 199.712C185.562 203.696 197.634 203.21 205.715 198.545L293.434 148.01C298.204 145.289 300.443 141.791 300.151 138.584Z" fill="url(#paint13_linear_623_574)"/>
        <path d="M203.865 91.4496C200.555 89.5059 195.979 88.6313 191.209 88.7285V202.336C196.272 202.238 201.626 200.975 205.813 198.545L293.531 148.01C298.204 145.289 300.444 141.888 300.152 138.681V121.479H256.049L203.865 91.4496Z" fill="url(#paint14_linear_623_574)"/>
        <path d="M178.65 181.635L87.0375 128.768C80.0278 124.783 80.904 117.786 88.9846 113.121L176.703 62.5861C184.784 57.9213 196.954 57.4354 203.866 61.4199L295.479 114.288C302.489 118.272 301.612 125.269 293.532 129.934L205.813 180.469C197.732 185.134 185.563 185.62 178.65 181.635Z" fill="#312A91"/>
        <path d="M178.65 181.635L87.0375 128.768C80.0278 124.783 80.904 117.786 88.9846 113.121L176.703 62.5861C184.784 57.9213 196.954 57.4354 203.866 61.4199L295.479 114.288C302.489 118.272 301.612 125.269 293.532 129.934L205.813 180.469C197.732 185.134 185.563 185.62 178.65 181.635Z" fill="url(#paint15_linear_623_574)"/>
        <path opacity="0.5" d="M181.668 181.636L90.0553 128.768C83.0456 124.783 81.3905 118.855 92.0024 113.121L179.721 62.5863C183.713 60.351 188.581 58.9905 193.448 58.7961C187.704 58.5046 181.474 59.8651 176.606 62.5863L88.887 113.121C80.8063 117.786 79.9301 124.783 86.9398 128.768L178.553 181.636C182.058 183.676 187.023 184.551 191.988 184.259C188.191 184.065 184.492 183.19 181.668 181.636Z" fill="url(#paint16_linear_623_574)"/>
        <path opacity="0.5" d="M293.531 137.514L205.813 188.049C197.732 192.714 185.562 193.2 178.65 189.216L87.037 136.348C83.7269 134.404 82.1692 131.78 82.3639 129.059V132.752C82.1692 135.473 83.7269 138.097 87.037 140.041L178.65 192.909C185.66 196.893 197.732 196.407 205.813 191.742L293.531 141.207C298.205 138.486 300.444 135.085 300.152 131.878V128.185C300.444 131.392 298.205 134.89 293.531 137.514Z" fill="url(#paint17_linear_623_574)"/>
        <path opacity="0.2" d="M183.908 125.366C185.855 126.435 185.855 128.282 183.908 129.351C181.961 130.42 178.943 130.42 176.996 129.351C175.048 128.282 175.048 126.435 176.996 125.366C178.943 124.2 182.058 124.2 183.908 125.366Z" fill="#F9FC6E"/>
        <path opacity="0.6" d="M194.715 119.146C196.662 120.216 196.662 122.062 194.715 123.131C192.767 124.2 189.749 124.2 187.802 123.131C185.855 122.062 185.855 120.216 187.802 119.146C189.652 118.077 192.767 118.077 194.715 119.146Z" fill="#F9FC6E"/>
        <path d="M205.423 112.927C207.371 113.996 207.371 115.842 205.423 116.911C203.476 117.98 200.458 117.98 198.511 116.911C196.564 115.842 196.564 113.996 198.511 112.927C200.458 111.858 203.476 111.858 205.423 112.927Z" fill="#F9FC6E"/>
        <path opacity="0.5" d="M190.625 168.613C187.218 168.613 184.005 167.933 181.571 166.572L113.811 127.505C111.377 126.047 110.014 124.103 110.014 121.868C110.014 119.244 111.961 116.62 115.271 114.676L180.111 77.3581C186.244 73.8595 195.591 73.4707 200.848 76.4834L268.608 115.551C271.042 117.009 272.405 118.952 272.405 121.188C272.405 123.812 270.458 126.436 267.148 128.379L202.308 165.795C198.998 167.641 194.714 168.613 190.625 168.613ZM182.253 165.309C187.218 168.127 195.883 167.836 201.627 164.434L266.466 127.019C269.387 125.367 271.042 123.131 271.042 121.09C271.042 119.438 269.971 117.786 267.927 116.62L200.166 77.5524C195.201 74.7341 186.536 75.0257 180.792 78.4271L115.952 115.843C113.032 117.495 111.377 119.73 111.377 121.771C111.377 123.423 112.448 125.075 114.492 126.241L182.253 165.309Z" fill="#0B0244"/>
        <path d="M190.236 195.241C186.536 195.241 182.934 194.464 180.306 193.006L64.1586 126.047C61.53 124.589 60.167 122.451 60.167 120.216C60.167 117.495 62.2115 114.676 65.8137 112.635L178.651 47.6199C185.368 43.7326 195.688 43.3439 201.529 46.6481L317.676 113.607C320.305 115.065 321.668 117.203 321.668 119.438C321.668 122.159 319.624 124.978 316.021 127.019L203.185 192.034C199.485 194.172 194.714 195.241 190.236 195.241ZM191.599 44.8016C187.218 44.8016 182.545 45.8706 178.943 48.0087L66.0084 113.024C62.6009 114.968 60.5564 117.592 60.5564 120.216C60.5564 122.354 61.9194 124.297 64.3533 125.658L180.5 192.617C186.244 195.921 196.272 195.533 202.892 191.645L315.729 126.63C319.137 124.686 321.181 122.062 321.181 119.438C321.181 117.3 319.818 115.357 317.384 113.996L201.335 47.0368C198.706 45.5791 195.201 44.8016 191.599 44.8016Z" fill="#F2D74C"/>
        <path opacity="0.3" d="M161.32 110.594C214.336 110.594 257.314 85.837 257.314 55.2972C257.314 24.7574 214.336 0 161.32 0C108.304 0 65.3262 24.7574 65.3262 55.2972C65.3262 85.837 108.304 110.594 161.32 110.594Z" fill="url(#paint18_radial_623_574)"/>
        <path opacity="0.3" d="M265.006 211.276C318.022 211.276 361 186.519 361 155.979C361 125.439 318.022 100.682 265.006 100.682C211.99 100.682 169.012 125.439 169.012 155.979C169.012 186.519 211.99 211.276 265.006 211.276Z" fill="url(#paint19_radial_623_574)"/>
        <path opacity="0.3" d="M73.7967 148.107C114.553 148.107 147.593 129.049 147.593 105.541C147.593 82.0321 114.553 62.9746 73.7967 62.9746C33.0399 62.9746 0 82.0321 0 105.541C0 129.049 33.0399 148.107 73.7967 148.107Z" fill="url(#paint20_radial_623_574)"/>
        <path d="M162.197 66.0843C167.036 66.0843 170.959 62.1683 170.959 57.3378C170.959 52.5072 167.036 48.5913 162.197 48.5913C157.358 48.5913 153.435 52.5072 153.435 57.3378C153.435 62.1683 157.358 66.0843 162.197 66.0843Z" fill="url(#paint21_radial_623_574)"/>
        <path d="M164.631 57.3378C164.631 58.6984 163.56 59.8646 162.1 59.8646C160.737 59.8646 159.568 58.7955 159.568 57.3378C159.568 55.9772 160.639 54.811 162.1 54.811C163.56 54.811 164.631 55.9772 164.631 57.3378Z" fill="#F9FC6E"/>
        <path d="M73.7963 117.106C78.6355 117.106 82.5585 113.19 82.5585 108.359C82.5585 103.529 78.6355 99.6128 73.7963 99.6128C68.9571 99.6128 65.0342 103.529 65.0342 108.359C65.0342 113.19 68.9571 117.106 73.7963 117.106Z" fill="url(#paint22_radial_623_574)"/>
        <path d="M73.7959 110.886C75.1939 110.886 76.3272 109.755 76.3272 108.359C76.3272 106.964 75.1939 105.833 73.7959 105.833C72.3979 105.833 71.2646 106.964 71.2646 108.359C71.2646 109.755 72.3979 110.886 73.7959 110.886Z" fill="#F9FC6E"/>
        <path d="M265.59 164.531C270.429 164.531 274.352 160.615 274.352 155.785C274.352 150.954 270.429 147.038 265.59 147.038C260.751 147.038 256.828 150.954 256.828 155.785C256.828 160.615 260.751 164.531 265.59 164.531Z" fill="url(#paint23_radial_623_574)"/>
        <path d="M268.121 155.785C268.121 157.145 267.05 158.311 265.59 158.311C264.227 158.311 263.059 157.242 263.059 155.785C263.059 154.424 264.129 153.258 265.59 153.258C266.953 153.258 268.121 154.424 268.121 155.785Z" fill="#F9FC6E"/>
        <path d="M281.849 155.007C286.688 155.007 290.611 151.091 290.611 146.261C290.611 141.43 286.688 137.514 281.849 137.514C277.01 137.514 273.087 141.43 273.087 146.261C273.087 151.091 277.01 155.007 281.849 155.007Z" fill="url(#paint24_radial_623_574)"/>
        <path d="M281.849 148.787C283.247 148.787 284.38 147.656 284.38 146.261C284.38 144.865 283.247 143.734 281.849 143.734C280.451 143.734 279.317 144.865 279.317 146.261C279.317 147.656 280.451 148.787 281.849 148.787Z" fill="#F9FC6E"/>
        <path d="M298.108 145.58C302.947 145.58 306.87 141.664 306.87 136.834C306.87 132.003 302.947 128.087 298.108 128.087C293.269 128.087 289.346 132.003 289.346 136.834C289.346 141.664 293.269 145.58 298.108 145.58Z" fill="url(#paint25_radial_623_574)"/>
        <path d="M300.639 136.834C300.639 138.194 299.568 139.361 298.107 139.361C296.744 139.361 295.576 138.292 295.576 136.834C295.576 135.473 296.647 134.307 298.107 134.307C299.47 134.307 300.639 135.473 300.639 136.834Z" fill="#F9FC6E"/>
    </g>
    <defs>
        <radialGradient id="paint0_radial_623_574" cx="0" cy="0" r="1" gradientUnits="userSpaceOnUse" gradientTransform="translate(161.316 188.995) rotate(29.9564) scale(78.3444 67.7885)">
            <stop offset="0.0142738" stop-color="#F2C94C"/>
            <stop offset="0.8226" stop-color="#0F133B" stop-opacity="0"/>
        </radialGradient>
        <radialGradient id="paint1_radial_623_574" cx="0" cy="0" r="1" gradientUnits="userSpaceOnUse" gradientTransform="translate(265.004 289.638) rotate(29.9564) scale(78.3444 67.7885)">
            <stop offset="0.0142738" stop-color="#F2C94C"/>
            <stop offset="0.8226" stop-color="#0F133B" stop-opacity="0"/>
        </radialGradient>
        <radialGradient id="paint2_radial_623_574" cx="0" cy="0" r="1" gradientUnits="userSpaceOnUse" gradientTransform="translate(73.8086 239.247) rotate(29.9564) scale(60.2371 52.1209)">
            <stop offset="0.0142738" stop-color="#F2C94C"/>
            <stop offset="0.8226" stop-color="#0F133B" stop-opacity="0"/>
        </radialGradient>
        <radialGradient id="paint3_radial_623_574" cx="0" cy="0" r="1" gradientUnits="userSpaceOnUse" gradientTransform="translate(162.169 190.983) scale(8.7635 8.74784)">
            <stop offset="0.0225145" stop-color="#F2C94C"/>
            <stop offset="0.8226" stop-color="#180D5B" stop-opacity="0"/>
        </radialGradient>
        <radialGradient id="paint4_radial_623_574" cx="0" cy="0" r="1" gradientUnits="userSpaceOnUse" gradientTransform="translate(73.8082 242.009) scale(8.7635 8.74784)">
            <stop offset="0.0225145" stop-color="#F2C94C"/>
            <stop offset="0.8226" stop-color="#180D5B" stop-opacity="0"/>
        </radialGradient>
        <radialGradient id="paint5_radial_623_574" cx="0" cy="0" r="1" gradientUnits="userSpaceOnUse" gradientTransform="translate(265.602 289.466) scale(8.7635 8.74784)">
            <stop offset="0.0142738" stop-color="#F2C94C"/>
            <stop offset="0.8226" stop-color="#0F133B" stop-opacity="0"/>
        </radialGradient>
        <radialGradient id="paint6_radial_623_574" cx="0" cy="0" r="1" gradientUnits="userSpaceOnUse" gradientTransform="translate(281.848 279.91) scale(8.7635 8.74784)">
            <stop offset="0.0142738" stop-color="#F2C94C"/>
            <stop offset="0.8226" stop-color="#0F133B" stop-opacity="0"/>
        </radialGradient>
        <radialGradient id="paint7_radial_623_574" cx="0" cy="0" r="1" gradientUnits="userSpaceOnUse" gradientTransform="translate(298.093 270.499) scale(8.7635 8.74784)">
            <stop offset="0.0142738" stop-color="#F2C94C"/>
            <stop offset="0.8226" stop-color="#0F133B" stop-opacity="0"/>
        </radialGradient>
        <linearGradient id="paint8_linear_623_574" x1="34.1002" y1="211.291" x2="252.015" y2="211.291" gradientUnits="userSpaceOnUse">
            <stop stop-color="#42E8E0"/>
            <stop offset="0.3445" stop-color="#2F87A5"/>
            <stop offset="0.564" stop-color="#255385"/>
            <stop offset="0.7534" stop-color="#1E2D6E"/>
            <stop offset="0.905" stop-color="#1A1660"/>
            <stop offset="1" stop-color="#180D5B"/>
        </linearGradient>
        <linearGradient id="paint9_linear_623_574" x1="191.226" y1="211.286" x2="300.184" y2="211.286" gradientUnits="userSpaceOnUse">
            <stop stop-color="#2B237C"/>
            <stop offset="1" stop-color="#180D5B"/>
        </linearGradient>
        <linearGradient id="paint10_linear_623_574" x1="82.2697" y1="187.261" x2="300.2" y2="187.261" gradientUnits="userSpaceOnUse">
            <stop stop-color="#F2994A"/>
            <stop offset="0.1022" stop-color="#F2994A"/>
            <stop offset="0.3445" stop-color="#F2C44C"/>
            <stop offset="0.564" stop-color="#F2CD4C"/>
            <stop offset="0.7534" stop-color="#1E2D6E"/>
            <stop offset="0.905" stop-color="#1A1660"/>
            <stop offset="1" stop-color="#180D5B"/>
        </linearGradient>
        <linearGradient id="paint11_linear_623_574" x1="82.2694" y1="187.264" x2="193.496" y2="187.264" gradientUnits="userSpaceOnUse">
            <stop stop-color="#42E8E0"/>
            <stop offset="0.1022" stop-color="#3CCACE"/>
            <stop offset="0.3445" stop-color="#2F87A5"/>
            <stop offset="0.564" stop-color="#255385"/>
            <stop offset="0.7534" stop-color="#1E2D6E"/>
            <stop offset="0.905" stop-color="#1A1660"/>
            <stop offset="1" stop-color="#180D5B"/>
        </linearGradient>
        <linearGradient id="paint12_linear_623_574" x1="111.909" y1="250.561" x2="294.121" y2="131.25" gradientUnits="userSpaceOnUse">
            <stop stop-color="#F2C94C"/>
            <stop offset="0.1022" stop-color="#F2C44C"/>
            <stop offset="0.3445" stop-color="#F2C44C"/>
            <stop offset="0.564" stop-color="#F2B04C"/>
            <stop offset="0.7534" stop-color="#F2B94A"/>
            <stop offset="0.905" stop-color="#F2AF4A"/>
            <stop offset="1" stop-color="#F2994A"/>
        </linearGradient>
        <linearGradient id="paint13_linear_623_574" x1="34.1002" y1="145.541" x2="252.015" y2="145.541" gradientUnits="userSpaceOnUse">
            <stop stop-color="#42E8E0"/>
            <stop offset="0.1022" stop-color="#3CCACE"/>
            <stop offset="0.3445" stop-color="#2F87A5"/>
            <stop offset="0.564" stop-color="#255385"/>
            <stop offset="0.7534" stop-color="#1E2D6E"/>
            <stop offset="0.905" stop-color="#F2994A"/>
            <stop offset="1" stop-color="#F2994A"/>
        </linearGradient>
        <linearGradient id="paint14_linear_623_574" x1="191.226" y1="145.535" x2="300.184" y2="145.535" gradientUnits="userSpaceOnUse">
            <stop stop-color="#2B237C"/>
            <stop offset="1" stop-color="#180D5B"/>
        </linearGradient>
        <linearGradient id="paint15_linear_623_574" x1="82.2697" y1="121.51" x2="300.2" y2="121.51" gradientUnits="userSpaceOnUse">
            <stop stop-color="#F2C94C"/>
            <stop offset="0.7534" stop-color="#FF993C"/>
            <stop offset="0.905" stop-color="#F77F11"/>
            <stop offset="1" stop-color="#E97205"/>
        </linearGradient>
        <linearGradient id="paint16_linear_623_574" x1="82.2694" y1="121.513" x2="193.496" y2="121.513" gradientUnits="userSpaceOnUse">
            <stop stop-color="#F2C94C"/>
            <stop offset="0.1022" stop-color="#EAC040"/>
            <stop offset="0.3445" stop-color="#EEC13A"/>
            <stop offset="0.564" stop-color="#F9C833"/>
            <stop offset="0.7534" stop-color="#F2B04C"/>
            <stop offset="0.905" stop-color="#F2A54A"/>
            <stop offset="1" stop-color="#F2994A"/>
        </linearGradient>
        <linearGradient id="paint17_linear_623_574" x1="111.91" y1="184.81" x2="294.121" y2="65.4987" gradientUnits="userSpaceOnUse">
            <stop stop-color="#F2C94C"/>
            <stop offset="0.1022" stop-color="#FFDB6F"/>
            <stop offset="0.3445" stop-color="#F0DB9B"/>
            <stop offset="0.564" stop-color="#EFC353"/>
            <stop offset="0.7534" stop-color="#F2A54A"/>
            <stop offset="0.905" stop-color="#F29B4A"/>
            <stop offset="1" stop-color="#F2994A"/>
        </linearGradient>
        <radialGradient id="paint18_radial_623_574" cx="0" cy="0" r="1" gradientUnits="userSpaceOnUse" gradientTransform="translate(161.316 55.324) rotate(29.9564) scale(78.3444 67.7885)">
            <stop stop-color="#EFF24C"/>
            <stop offset="1" stop-color="#EFF24C" stop-opacity="0"/>
        </radialGradient>
        <radialGradient id="paint19_radial_623_574" cx="0" cy="0" r="1" gradientUnits="userSpaceOnUse" gradientTransform="translate(265.004 155.967) rotate(29.9564) scale(78.3444 67.7885)">
            <stop offset="0.0142738" stop-color="#F2C94C"/>
            <stop offset="0.8226" stop-color="#0F133B" stop-opacity="0"/>
        </radialGradient>
        <radialGradient id="paint20_radial_623_574" cx="0" cy="0" r="1" gradientUnits="userSpaceOnUse" gradientTransform="translate(73.8087 105.576) rotate(29.9564) scale(60.237 52.1208)">
            <stop offset="0.0142738" stop-color="#F2C94C"/>
            <stop offset="0.8226" stop-color="#0F133B" stop-opacity="0"/>
        </radialGradient>
        <radialGradient id="paint21_radial_623_574" cx="0" cy="0" r="1" gradientUnits="userSpaceOnUse" gradientTransform="translate(162.169 57.3122) scale(8.7635 8.74784)">
            <stop stop-color="#F2994A"/>
            <stop offset="1" stop-color="#F9FC6E" stop-opacity="0"/>
        </radialGradient>
        <radialGradient id="paint22_radial_623_574" cx="0" cy="0" r="1" gradientUnits="userSpaceOnUse" gradientTransform="translate(73.8082 108.338) scale(8.7635 8.74784)">
            <stop stop-color="#F2C94C"/>
            <stop offset="0.8226" stop-color="#0F133B" stop-opacity="0"/>
        </radialGradient>
        <radialGradient id="paint23_radial_623_574" cx="0" cy="0" r="1" gradientUnits="userSpaceOnUse" gradientTransform="translate(265.602 155.795) scale(8.7635 8.74784)">
            <stop offset="0.0142738" stop-color="#F2C94C"/>
            <stop offset="0.8226" stop-color="#0F133B" stop-opacity="0"/>
        </radialGradient>
        <radialGradient id="paint24_radial_623_574" cx="0" cy="0" r="1" gradientUnits="userSpaceOnUse" gradientTransform="translate(281.848 146.239) scale(8.7635 8.74784)">
            <stop offset="0.0142738" stop-color="#F2C94C"/>
            <stop offset="0.8226" stop-color="#0F133B" stop-opacity="0"/>
        </radialGradient>
        <radialGradient id="paint25_radial_623_574" cx="0" cy="0" r="1" gradientUnits="userSpaceOnUse" gradientTransform="translate(298.093 136.828) scale(8.7635 8.74784)">
            <stop offset="0.0142738" stop-color="#F2C94C"/>
            <stop offset="0.8226" stop-color="#0F133B" stop-opacity="0"/>
        </radialGradient>
        <clipPath id="clip0_623_574">
            <rect width="361" height="345" fill="white"/>
        </clipPath>
    </defs>
</svg>
