<svg width="325" height="302" viewBox="0 0 325 302" fill="none" xmlns="http://www.w3.org/2000/svg">
<rect x="10" width="315" height="301" rx="20" fill="black"/>
<path d="M165.995 287.092C162.767 287.092 159.624 286.413 157.33 285.141L55.983 226.705C53.6893 225.433 52.5 223.567 52.5 221.617C52.5 219.242 54.284 216.782 57.4272 215.001L155.886 158.262C161.748 154.869 170.753 154.53 175.85 157.413L277.197 215.849C279.491 217.121 280.68 218.987 280.68 220.938C280.68 223.313 278.896 225.772 275.753 227.553L177.294 284.293C174.066 286.074 169.903 287.092 165.995 287.092ZM167.185 155.717C163.362 155.717 159.284 156.65 156.141 158.516L57.5971 215.256C54.6238 216.952 52.8398 219.242 52.8398 221.532C52.8398 223.398 54.0291 225.094 56.1529 226.281L157.5 284.717C162.512 287.601 171.262 287.262 177.039 283.869L275.498 227.129C278.471 225.433 280.255 223.143 280.255 220.853C280.255 218.987 279.066 217.291 276.942 216.104L175.595 157.668C173.386 156.396 170.328 155.717 167.185 155.717Z" fill="#6EE8FC"/>
<path opacity="0.3" d="M140.762 213.22C187.023 213.22 224.524 191.614 224.524 164.961C224.524 138.309 187.023 116.703 140.762 116.703C94.5016 116.703 57 138.309 57 164.961C57 191.614 94.5016 213.22 140.762 213.22Z" fill="url(#paint0_radial_2547_5060)"/>
<path opacity="0.3" d="M231.239 301.001C277.499 301.001 315.001 279.395 315.001 252.743C315.001 226.09 277.499 204.484 231.239 204.484C184.978 204.484 147.477 226.09 147.477 252.743C147.477 279.395 184.978 301.001 231.239 301.001Z" fill="url(#paint1_radial_2547_5060)"/>
<path opacity="0.3" d="M64.3933 245.958C99.9567 245.958 128.787 229.326 128.787 208.81C128.787 188.294 99.9567 171.662 64.3933 171.662C28.8299 171.662 0 188.294 0 208.81C0 229.326 28.8299 245.958 64.3933 245.958Z" fill="url(#paint2_radial_2547_5060)"/>
<path d="M141.528 174.292C145.751 174.292 149.174 170.874 149.174 166.659C149.174 162.443 145.751 159.025 141.528 159.025C137.306 159.025 133.883 162.443 133.883 166.659C133.883 170.874 137.306 174.292 141.528 174.292Z" fill="url(#paint3_radial_2547_5060)"/>
<path d="M143.652 166.658C143.652 167.846 142.717 168.863 141.443 168.863C140.254 168.863 139.234 167.93 139.234 166.658C139.234 165.471 140.169 164.453 141.443 164.453C142.717 164.538 143.652 165.471 143.652 166.658Z" fill="#6EE8FC"/>
<path d="M64.3956 218.817C68.6182 218.817 72.0413 215.4 72.0413 211.184C72.0413 206.968 68.6182 203.551 64.3956 203.551C60.1731 203.551 56.75 206.968 56.75 211.184C56.75 215.4 60.1731 218.817 64.3956 218.817Z" fill="url(#paint4_radial_2547_5060)"/>
<path d="M66.605 211.184C66.605 212.371 65.6705 213.389 64.3962 213.389C63.2069 213.389 62.1875 212.456 62.1875 211.184C62.1875 209.996 63.122 208.979 64.3962 208.979C65.5856 209.063 66.605 209.996 66.605 211.184Z" fill="#6EE8FC"/>
<path d="M231.747 260.292C235.97 260.292 239.393 256.874 239.393 252.659C239.393 248.443 235.97 245.025 231.747 245.025C227.525 245.025 224.102 248.443 224.102 252.659C224.102 256.874 227.525 260.292 231.747 260.292Z" fill="url(#paint5_radial_2547_5060)"/>
<path d="M231.748 254.863C232.968 254.863 233.957 253.876 233.957 252.658C233.957 251.44 232.968 250.453 231.748 250.453C230.528 250.453 229.539 251.44 229.539 252.658C229.539 253.876 230.528 254.863 231.748 254.863Z" fill="#6EE8FC"/>
<path d="M245.935 251.895C250.157 251.895 253.58 248.478 253.58 244.262C253.58 240.046 250.157 236.629 245.935 236.629C241.712 236.629 238.289 240.046 238.289 244.262C238.289 248.478 241.712 251.895 245.935 251.895Z" fill="url(#paint6_radial_2547_5060)"/>
<path d="M248.144 244.262C248.144 245.449 247.21 246.467 245.935 246.467C244.746 246.467 243.727 245.534 243.727 244.262C243.727 243.074 244.661 242.057 245.935 242.057C247.125 242.141 248.144 243.074 248.144 244.262Z" fill="#6EE8FC"/>
<path d="M260.122 243.667C264.345 243.667 267.768 240.249 267.768 236.034C267.768 231.818 264.345 228.4 260.122 228.4C255.9 228.4 252.477 231.818 252.477 236.034C252.477 240.249 255.9 243.667 260.122 243.667Z" fill="url(#paint7_radial_2547_5060)"/>
<path d="M262.332 236.033C262.332 237.221 261.397 238.238 260.123 238.238C258.933 238.238 257.914 237.305 257.914 236.033C257.914 234.761 258.849 233.828 260.123 233.828C261.312 233.913 262.332 234.846 262.332 236.033Z" fill="#6EE8FC"/>
<path d="M156.898 268.263L84.6896 226.62C79.1677 223.481 79.9323 217.969 86.2187 214.322L155.369 174.46C161.741 170.813 171.255 170.389 176.777 173.612L248.986 215.255C254.508 218.393 253.743 223.906 247.457 227.552L178.306 267.414C172.02 271.061 162.42 271.401 156.898 268.263Z" fill="#0A0E2D"/>
<path d="M261.901 178.361V163.434H223.418L177.884 137.226C171.768 133.749 161.234 134.173 154.183 138.244L110.348 163.518H71.7798V179.293C71.6099 181.668 72.9691 183.958 75.8575 185.654L155.797 231.792C161.913 235.27 172.447 234.846 179.498 230.775L256.04 186.672C260.202 184.128 262.156 181.159 261.901 178.361Z" fill="#312A91"/>
<path opacity="0.5" d="M261.901 178.361V163.434H223.418L177.884 137.226C171.768 133.749 161.234 134.173 154.183 138.244L110.348 163.518H71.7798V179.293C71.6099 181.668 72.9691 183.958 75.8575 185.654L155.797 231.792C161.913 235.27 172.447 234.846 179.498 230.775L256.04 186.672C260.202 184.128 262.156 181.159 261.901 178.361Z" fill="url(#paint8_linear_2547_5060)"/>
<path d="M177.887 137.143C174.999 135.447 171.006 134.683 166.844 134.768V233.914C171.261 233.829 175.934 232.727 179.586 230.606L256.128 186.504C260.206 184.129 262.159 181.161 261.905 178.362V163.435H223.421L177.887 137.143Z" fill="url(#paint9_linear_2547_5060)"/>
<path d="M155.883 215.849L75.9439 169.711C69.8274 166.233 70.592 160.127 77.643 156.056L154.184 111.953C161.235 107.882 171.854 107.458 177.886 110.935L257.825 157.073C263.942 160.551 263.177 166.657 256.126 170.728L179.585 214.831C172.534 218.902 161.915 219.326 155.883 215.849Z" fill="#312A91"/>
<path opacity="0.5" d="M155.883 215.849L75.9439 169.711C69.8274 166.233 70.592 160.127 77.643 156.056L154.184 111.953C161.235 107.882 171.854 107.458 177.886 110.935L257.825 157.073C263.942 160.551 263.177 166.657 256.126 170.728L179.585 214.831C172.534 218.902 161.915 219.326 155.883 215.849Z" fill="url(#paint10_linear_2547_5060)"/>
<path d="M158.005 205.671L93.5263 168.523C88.5991 165.724 89.2787 160.805 94.8855 157.497L156.56 121.961C162.252 118.738 170.747 118.314 175.674 121.197L240.153 158.345C245.08 161.144 244.4 166.063 238.793 169.371L177.119 204.908C171.427 208.13 162.932 208.47 158.005 205.671Z" fill="#5CFFF3"/>
<path d="M94.9696 162.331L156.644 126.795C162.336 123.572 170.831 123.148 175.759 126.032L240.237 163.18C241.426 163.858 242.276 164.706 242.87 165.639C244.314 163.01 243.465 160.296 240.237 158.43L175.759 121.282C170.831 118.483 162.336 118.823 156.644 122.045L94.9696 157.582C90.7221 160.041 89.2779 163.434 90.9769 166.148C91.6565 164.791 93.0157 163.434 94.9696 162.331Z" fill="#42E8E0"/>
<path opacity="0.5" d="M158.516 215.848L78.5765 169.71C72.4599 166.233 71.0158 161.059 80.2755 156.055L156.817 111.953C160.3 110.002 164.547 108.815 168.795 108.645C163.783 108.391 158.346 109.578 154.098 111.953L77.557 156.055C70.5061 160.126 69.7415 166.233 75.858 169.71L155.797 215.848C158.856 217.629 163.188 218.393 167.521 218.138C164.208 218.053 160.979 217.29 158.516 215.848Z" fill="url(#paint11_linear_2547_5060)"/>
<path opacity="0.5" d="M256.125 177.429L179.583 221.532C172.532 225.603 161.913 226.027 155.882 222.549L75.8575 176.411C72.9691 174.715 71.6099 172.425 71.7798 170.05V173.273C71.6099 175.648 72.9691 177.938 75.8575 179.634L155.797 225.772C161.913 229.25 172.447 228.826 179.498 224.755L256.04 180.652C260.117 178.277 262.071 175.309 261.816 172.51V169.287C262.156 172.086 260.202 175.054 256.125 177.429Z" fill="url(#paint12_linear_2547_5060)"/>
<path d="M242.28 173.019C243.13 173.528 243.13 174.376 242.28 174.8C241.431 175.309 239.987 175.309 239.137 174.8C238.288 174.291 238.288 173.443 239.137 173.019C239.987 172.595 241.346 172.595 242.28 173.019Z" fill="#FCCC6B"/>
<path d="M247.21 170.22C248.06 170.728 248.06 171.577 247.21 172.001C246.361 172.425 244.916 172.509 244.067 172.001C243.217 171.492 243.217 170.644 244.067 170.22C244.916 169.711 246.276 169.711 247.21 170.22Z" fill="#FCCC6B"/>
<path d="M252.132 167.421C252.981 167.93 252.981 168.778 252.132 169.202C251.282 169.711 249.838 169.711 248.989 169.202C248.139 168.693 248.139 167.845 248.989 167.421C249.838 166.997 251.197 166.912 252.132 167.421Z" fill="#FCCC6B"/>
<path opacity="0.5" d="M159.877 196.681L109.33 167.506C105.508 165.301 105.932 161.399 110.435 158.855L158.857 130.951C163.275 128.407 169.986 128.153 173.809 130.358L224.355 159.533C228.178 161.738 227.753 165.64 223.25 168.184L174.828 196.088C170.496 198.632 163.784 198.886 159.877 196.681Z" fill="#0B0244"/>
<path opacity="0.5" d="M261.901 163.434C261.901 163.18 261.901 162.841 261.901 162.586V120.943L195.639 121.198L177.884 110.935C171.768 107.458 161.234 107.882 154.183 111.953L137.617 121.537L71.7798 121.791V163.434C71.6099 165.809 72.9691 168.099 75.8575 169.795L155.797 215.933C161.913 219.411 172.447 218.987 179.498 214.916L256.04 170.813C259.778 168.608 261.731 165.979 261.901 163.434Z" fill="#5CFFF3"/>
<path d="M261.901 120.943V106.016H223.418L177.884 79.8085C171.768 76.3312 161.234 76.7552 154.183 80.8262L110.348 106.016H71.7798V121.791C71.6099 124.165 72.9691 126.455 75.8575 128.152L155.797 174.29C161.913 177.767 172.447 177.343 179.498 173.272L256.04 129.169C260.202 126.795 262.156 123.741 261.901 120.943Z" fill="#312A91"/>
<path opacity="0.5" d="M261.901 120.943V106.016H223.418L177.884 79.8085C171.768 76.3312 161.234 76.7552 154.183 80.8262L110.348 106.016H71.7798V121.791C71.6099 124.165 72.9691 126.455 75.8575 128.152L155.797 174.29C161.913 177.767 172.447 177.343 179.498 173.272L256.04 129.169C260.202 126.795 262.156 123.741 261.901 120.943Z" fill="url(#paint13_linear_2547_5060)"/>
<path d="M177.887 79.8088C174.999 78.1126 171.006 77.3493 166.844 77.4341V176.58C171.261 176.495 175.934 175.393 179.586 173.272L256.128 129.17C260.206 126.795 262.159 123.827 261.905 121.028V106.016H223.421L177.887 79.8088Z" fill="url(#paint14_linear_2547_5060)"/>
<path d="M155.883 158.515L75.9439 112.377C69.8274 108.899 70.592 102.793 77.643 98.7217L154.184 54.6192C161.235 50.5482 171.854 50.1241 177.886 53.6014L257.825 99.7395C263.942 103.217 263.177 109.323 256.126 113.394L179.585 157.497C172.534 161.568 161.915 161.992 155.883 158.515Z" fill="#312A91"/>
<path opacity="0.5" d="M155.883 158.515L75.9439 112.377C69.8274 108.899 70.592 102.793 77.643 98.7217L154.184 54.6192C161.235 50.5482 171.854 50.1241 177.886 53.6014L257.825 99.7395C263.942 103.217 263.177 109.323 256.126 113.394L179.585 157.497C172.534 161.568 161.915 161.992 155.883 158.515Z" fill="url(#paint15_linear_2547_5060)"/>
<path opacity="0.5" d="M158.516 158.514L78.5765 112.376C72.4599 108.899 71.0158 103.725 80.2755 98.7214L156.817 54.6189C160.3 52.6682 164.547 51.4808 168.795 51.3112C163.783 51.0568 158.346 52.2441 154.098 54.6189L77.557 98.7214C70.5061 102.792 69.7415 108.899 75.858 112.376L155.797 158.514C158.856 160.295 163.188 161.059 167.521 160.804C164.208 160.635 160.979 159.871 158.516 158.514Z" fill="url(#paint16_linear_2547_5060)"/>
<path opacity="0.5" d="M256.126 120.009L179.584 164.112C172.533 168.183 161.914 168.607 155.883 165.13L75.9434 118.991C73.055 117.295 71.6958 115.005 71.8657 112.631V115.853C71.6958 118.228 73.055 120.518 75.9434 122.214L155.883 168.352C161.999 171.83 172.533 171.406 179.584 167.335L256.126 123.232C260.203 120.857 262.157 117.889 261.902 115.09V111.867C262.157 114.666 260.203 117.719 256.126 120.009Z" fill="url(#paint17_linear_2547_5060)"/>
<path opacity="0.2" d="M160.47 109.408C162.169 110.341 162.169 111.952 160.47 112.885C158.771 113.818 156.137 113.818 154.438 112.885C152.739 111.952 152.739 110.341 154.438 109.408C156.137 108.39 158.856 108.39 160.47 109.408Z" fill="#5CFFF3"/>
<path opacity="0.6" d="M169.9 103.979C171.599 104.912 171.599 106.523 169.9 107.456C168.201 108.389 165.567 108.389 163.868 107.456C162.169 106.523 162.169 104.912 163.868 103.979C165.482 103.046 168.201 103.046 169.9 103.979Z" fill="#5CFFF3"/>
<path d="M179.243 98.5513C180.942 99.4842 180.942 101.096 179.243 102.029C177.544 102.962 174.911 102.962 173.212 102.029C171.513 101.096 171.513 99.4842 173.212 98.5513C174.911 97.6183 177.544 97.6183 179.243 98.5513Z" fill="#5CFFF3"/>
<path opacity="0.5" d="M166.332 147.15C163.359 147.15 160.555 146.556 158.432 145.369L99.3053 111.274C97.1815 110.002 95.9922 108.306 95.9922 106.355C95.9922 104.065 97.6912 101.775 100.58 100.079L157.157 67.5111C162.509 64.4579 170.665 64.1186 175.252 66.7478L234.378 100.842C236.502 102.115 237.691 103.811 237.691 105.762C237.691 108.052 235.992 110.341 233.104 112.038L176.526 144.691C173.638 146.302 169.9 147.15 166.332 147.15ZM159.026 144.267C163.359 146.726 170.919 146.472 175.932 143.503L232.509 110.85C235.058 109.409 236.502 107.458 236.502 105.677C236.502 104.235 235.568 102.793 233.784 101.775L174.657 67.6807C170.325 65.2212 162.764 65.4756 157.752 68.4441L101.174 101.097C98.6257 102.539 97.1815 104.489 97.1815 106.27C97.1815 107.712 98.116 109.154 99.9 110.172L159.026 144.267Z" fill="#0B0244"/>
<path d="M165.995 170.389C162.767 170.389 159.624 169.71 157.33 168.438L55.983 110.002C53.6893 108.73 52.5 106.864 52.5 104.913C52.5 102.539 54.284 100.079 57.4272 98.2981L155.886 41.5584C161.748 38.1659 170.753 37.8267 175.85 40.7103L277.197 99.1462C279.491 100.418 280.68 102.284 280.68 104.235C280.68 106.61 278.896 109.069 275.753 110.85L177.294 167.59C174.066 169.456 169.903 170.389 165.995 170.389ZM167.185 39.0989C163.362 39.0989 159.284 40.0318 156.141 41.8977L57.5971 98.6373C54.6238 100.334 52.8398 102.623 52.8398 104.913C52.8398 106.779 54.0291 108.476 56.1529 109.663L157.5 168.099C162.512 170.982 171.262 170.643 177.039 167.251L275.498 110.511C278.471 108.815 280.255 106.525 280.255 104.235C280.255 102.369 279.066 100.673 276.942 99.4854L175.68 41.0495C173.386 39.7774 170.328 39.0989 167.185 39.0989Z" fill="#6EE8FC"/>
<path opacity="0.3" d="M140.762 96.5167C187.023 96.5167 224.524 74.9107 224.524 48.2584C224.524 21.606 187.023 0 140.762 0C94.5016 0 57 21.606 57 48.2584C57 74.9107 94.5016 96.5167 140.762 96.5167Z" fill="url(#paint18_radial_2547_5060)"/>
<path opacity="0.3" d="M231.239 184.382C277.499 184.382 315.001 162.776 315.001 136.124C315.001 109.471 277.499 87.8652 231.239 87.8652C184.978 87.8652 147.477 109.471 147.477 136.124C147.477 162.776 184.978 184.382 231.239 184.382Z" fill="url(#paint19_radial_2547_5060)"/>
<path opacity="0.3" d="M64.3933 129.255C99.9567 129.255 128.787 112.623 128.787 92.1069C128.787 71.5907 99.9567 54.959 64.3933 54.959C28.8299 54.959 0 71.5907 0 92.1069C0 112.623 28.8299 129.255 64.3933 129.255Z" fill="url(#paint20_radial_2547_5060)"/>
<path d="M141.528 57.6725C145.751 57.6725 149.174 54.255 149.174 50.0394C149.174 45.8237 145.751 42.4062 141.528 42.4062C137.306 42.4062 133.883 45.8237 133.883 50.0394C133.883 54.255 137.306 57.6725 141.528 57.6725Z" fill="url(#paint21_radial_2547_5060)"/>
<path d="M143.652 50.0391C143.652 51.2265 142.717 52.2442 141.443 52.2442C140.254 52.2442 139.234 51.3113 139.234 50.0391C139.234 48.8517 140.169 47.834 141.443 47.834C142.717 47.834 143.652 48.8517 143.652 50.0391Z" fill="#6EE8FC"/>
<path d="M64.3956 102.2C68.6182 102.2 72.0413 98.7824 72.0413 94.5667C72.0413 90.3511 68.6182 86.9336 64.3956 86.9336C60.1731 86.9336 56.75 90.3511 56.75 94.5667C56.75 98.7824 60.1731 102.2 64.3956 102.2Z" fill="url(#paint22_radial_2547_5060)"/>
<path d="M64.3962 96.7716C65.6161 96.7716 66.605 95.7843 66.605 94.5665C66.605 93.3486 65.6161 92.3613 64.3962 92.3613C63.1764 92.3613 62.1875 93.3486 62.1875 94.5665C62.1875 95.7843 63.1764 96.7716 64.3962 96.7716Z" fill="#6EE8FC"/>
<path d="M231.747 143.589C235.97 143.589 239.393 140.171 239.393 135.955C239.393 131.74 235.97 128.322 231.747 128.322C227.525 128.322 224.102 131.74 224.102 135.955C224.102 140.171 227.525 143.589 231.747 143.589Z" fill="url(#paint23_radial_2547_5060)"/>
<path d="M233.957 135.955C233.957 137.143 233.022 138.16 231.748 138.16C230.558 138.16 229.539 137.227 229.539 135.955C229.539 134.768 230.474 133.75 231.748 133.75C232.937 133.75 233.957 134.768 233.957 135.955Z" fill="#6EE8FC"/>
<path d="M245.935 135.276C250.157 135.276 253.58 131.859 253.58 127.643C253.58 123.427 250.157 120.01 245.935 120.01C241.712 120.01 238.289 123.427 238.289 127.643C238.289 131.859 241.712 135.276 245.935 135.276Z" fill="url(#paint24_radial_2547_5060)"/>
<path d="M245.935 129.848C247.155 129.848 248.144 128.86 248.144 127.643C248.144 126.425 247.155 125.438 245.935 125.438C244.715 125.438 243.727 126.425 243.727 127.643C243.727 128.86 244.715 129.848 245.935 129.848Z" fill="#6EE8FC"/>
<path d="M260.122 127.049C264.345 127.049 267.768 123.632 267.768 119.416C267.768 115.201 264.345 111.783 260.122 111.783C255.9 111.783 252.477 115.201 252.477 119.416C252.477 123.632 255.9 127.049 260.122 127.049Z" fill="url(#paint25_radial_2547_5060)"/>
<path d="M262.332 119.416C262.332 120.603 261.397 121.621 260.123 121.621C258.933 121.621 257.914 120.688 257.914 119.416C257.914 118.229 258.849 117.211 260.123 117.211C261.312 117.211 262.332 118.229 262.332 119.416Z" fill="#6EE8FC"/>
<defs>
<radialGradient id="paint0_radial_2547_5060" cx="0" cy="0" r="1" gradientUnits="userSpaceOnUse" gradientTransform="translate(140.759 164.939) rotate(29.9601) scale(68.3641 59.1574)">
<stop stop-color="#42E8E0"/>
<stop offset="0.0142738" stop-color="#40DED8"/>
<stop offset="0.8226" stop-color="#0F133B" stop-opacity="0"/>
</radialGradient>
<radialGradient id="paint1_radial_2547_5060" cx="0" cy="0" r="1" gradientUnits="userSpaceOnUse" gradientTransform="translate(231.237 252.771) rotate(29.9601) scale(68.3641 59.1574)">
<stop stop-color="#42E8E0"/>
<stop offset="0.0142738" stop-color="#40DED8"/>
<stop offset="0.8226" stop-color="#0F133B" stop-opacity="0"/>
</radialGradient>
<radialGradient id="paint2_radial_2547_5060" cx="0" cy="0" r="1" gradientUnits="userSpaceOnUse" gradientTransform="translate(64.4037 208.795) rotate(29.9601) scale(52.5635 45.4847)">
<stop stop-color="#42E8E0"/>
<stop offset="0.0142738" stop-color="#40DED8"/>
<stop offset="0.8226" stop-color="#0F133B" stop-opacity="0"/>
</radialGradient>
<radialGradient id="paint3_radial_2547_5060" cx="0" cy="0" r="1" gradientUnits="userSpaceOnUse" gradientTransform="translate(141.504 166.675) scale(7.64683 7.63432)">
<stop stop-color="#42E8E0"/>
<stop offset="0.0225145" stop-color="#3FD8D7"/>
<stop offset="0.8226" stop-color="#180D5B" stop-opacity="0"/>
</radialGradient>
<radialGradient id="paint4_radial_2547_5060" cx="0" cy="0" r="1" gradientUnits="userSpaceOnUse" gradientTransform="translate(64.406 211.204) scale(7.64683 7.63432)">
<stop stop-color="#42E8E0"/>
<stop offset="0.0225145" stop-color="#3FD8D7"/>
<stop offset="0.8226" stop-color="#180D5B" stop-opacity="0"/>
</radialGradient>
<radialGradient id="paint5_radial_2547_5060" cx="0" cy="0" r="1" gradientUnits="userSpaceOnUse" gradientTransform="translate(231.758 252.621) scale(7.64683 7.63432)">
<stop stop-color="#42E8E0"/>
<stop offset="0.0142738" stop-color="#40DED8"/>
<stop offset="0.8226" stop-color="#0F133B" stop-opacity="0"/>
</radialGradient>
<radialGradient id="paint6_radial_2547_5060" cx="0" cy="0" r="1" gradientUnits="userSpaceOnUse" gradientTransform="translate(245.934 244.282) scale(7.64683 7.63432)">
<stop stop-color="#42E8E0"/>
<stop offset="0.0142738" stop-color="#40DED8"/>
<stop offset="0.8226" stop-color="#0F133B" stop-opacity="0"/>
</radialGradient>
<radialGradient id="paint7_radial_2547_5060" cx="0" cy="0" r="1" gradientUnits="userSpaceOnUse" gradientTransform="translate(260.109 236.067) scale(7.64683 7.63432)">
<stop stop-color="#42E8E0"/>
<stop offset="0.0142738" stop-color="#40DED8"/>
<stop offset="0.8226" stop-color="#0F133B" stop-opacity="0"/>
</radialGradient>
<linearGradient id="paint8_linear_2547_5060" x1="29.7512" y1="184.395" x2="219.898" y2="184.395" gradientUnits="userSpaceOnUse">
<stop stop-color="#42E8E0"/>
<stop offset="0.1022" stop-color="#3CCACE"/>
<stop offset="0.3445" stop-color="#2F87A5"/>
<stop offset="0.564" stop-color="#255385"/>
<stop offset="0.7534" stop-color="#1E2D6E"/>
<stop offset="0.905" stop-color="#1A1660"/>
<stop offset="1" stop-color="#180D5B"/>
</linearGradient>
<linearGradient id="paint9_linear_2547_5060" x1="166.859" y1="184.392" x2="261.932" y2="184.392" gradientUnits="userSpaceOnUse">
<stop stop-color="#2B237C"/>
<stop offset="1" stop-color="#180D5B"/>
</linearGradient>
<linearGradient id="paint10_linear_2547_5060" x1="71.7837" y1="163.425" x2="261.945" y2="163.425" gradientUnits="userSpaceOnUse">
<stop stop-color="#42E8E0"/>
<stop offset="0.1022" stop-color="#3CCACE"/>
<stop offset="0.3445" stop-color="#2F87A5"/>
<stop offset="0.564" stop-color="#255385"/>
<stop offset="0.7534" stop-color="#1E2D6E"/>
<stop offset="0.905" stop-color="#1A1660"/>
<stop offset="1" stop-color="#180D5B"/>
</linearGradient>
<linearGradient id="paint11_linear_2547_5060" x1="71.7827" y1="163.427" x2="168.836" y2="163.427" gradientUnits="userSpaceOnUse">
<stop stop-color="#42E8E0"/>
<stop offset="0.1022" stop-color="#3CCACE"/>
<stop offset="0.3445" stop-color="#2F87A5"/>
<stop offset="0.564" stop-color="#255385"/>
<stop offset="0.7534" stop-color="#1E2D6E"/>
<stop offset="0.905" stop-color="#1A1660"/>
<stop offset="1" stop-color="#180D5B"/>
</linearGradient>
<linearGradient id="paint12_linear_2547_5060" x1="97.6457" y1="218.668" x2="256.654" y2="114.566" gradientUnits="userSpaceOnUse">
<stop stop-color="#42E8E0"/>
<stop offset="0.1022" stop-color="#3CCACE"/>
<stop offset="0.3445" stop-color="#2F87A5"/>
<stop offset="0.564" stop-color="#255385"/>
<stop offset="0.7534" stop-color="#1E2D6E"/>
<stop offset="0.905" stop-color="#1A1660"/>
<stop offset="1" stop-color="#180D5B"/>
</linearGradient>
<linearGradient id="paint13_linear_2547_5060" x1="29.7512" y1="127.014" x2="219.898" y2="127.014" gradientUnits="userSpaceOnUse">
<stop stop-color="#42E8E0"/>
<stop offset="0.1022" stop-color="#3CCACE"/>
<stop offset="0.3445" stop-color="#2F87A5"/>
<stop offset="0.564" stop-color="#255385"/>
<stop offset="0.7534" stop-color="#1E2D6E"/>
<stop offset="0.905" stop-color="#1A1660"/>
<stop offset="1" stop-color="#180D5B"/>
</linearGradient>
<linearGradient id="paint14_linear_2547_5060" x1="166.859" y1="127.01" x2="261.932" y2="127.01" gradientUnits="userSpaceOnUse">
<stop stop-color="#2B237C"/>
<stop offset="1" stop-color="#180D5B"/>
</linearGradient>
<linearGradient id="paint15_linear_2547_5060" x1="71.7837" y1="106.043" x2="261.945" y2="106.043" gradientUnits="userSpaceOnUse">
<stop stop-color="#42E8E0"/>
<stop offset="0.1022" stop-color="#3CCACE"/>
<stop offset="0.3445" stop-color="#2F87A5"/>
<stop offset="0.564" stop-color="#255385"/>
<stop offset="0.7534" stop-color="#1E2D6E"/>
<stop offset="0.905" stop-color="#1A1660"/>
<stop offset="1" stop-color="#180D5B"/>
</linearGradient>
<linearGradient id="paint16_linear_2547_5060" x1="71.7827" y1="106.045" x2="168.836" y2="106.045" gradientUnits="userSpaceOnUse">
<stop stop-color="#42E8E0"/>
<stop offset="1" stop-color="#180D5B"/>
</linearGradient>
<linearGradient id="paint17_linear_2547_5060" x1="97.6467" y1="161.284" x2="256.655" y2="57.1828" gradientUnits="userSpaceOnUse">
<stop stop-color="#42E8E0"/>
<stop offset="0.1022" stop-color="#3CCACE"/>
<stop offset="0.3445" stop-color="#2F87A5"/>
<stop offset="0.564" stop-color="#255385"/>
<stop offset="0.7534" stop-color="#1E2D6E"/>
<stop offset="0.905" stop-color="#1A1660"/>
<stop offset="1" stop-color="#180D5B"/>
</linearGradient>
<radialGradient id="paint18_radial_2547_5060" cx="0" cy="0" r="1" gradientUnits="userSpaceOnUse" gradientTransform="translate(140.759 48.2818) rotate(29.9601) scale(68.3641 59.1574)">
<stop stop-color="#42E8E0"/>
<stop offset="0.0142738" stop-color="#40DED8"/>
<stop offset="0.8226" stop-color="#0F133B" stop-opacity="0"/>
</radialGradient>
<radialGradient id="paint19_radial_2547_5060" cx="0" cy="0" r="1" gradientUnits="userSpaceOnUse" gradientTransform="translate(231.237 136.113) rotate(29.9601) scale(68.3641 59.1574)">
<stop stop-color="#42E8E0"/>
<stop offset="0.0142738" stop-color="#40DED8"/>
<stop offset="0.0908193" stop-color="#34AFB4"/>
<stop offset="0.1719" stop-color="#2A8593"/>
<stop offset="0.2563" stop-color="#226278"/>
<stop offset="0.345" stop-color="#1B4562"/>
<stop offset="0.4394" stop-color="#162F51"/>
<stop offset="0.542" stop-color="#121F44" stop-opacity="0"/>
<stop offset="0.6591" stop-color="#10163D" stop-opacity="0"/>
<stop offset="0.8226" stop-color="#0F133B" stop-opacity="0"/>
</radialGradient>
<radialGradient id="paint20_radial_2547_5060" cx="0" cy="0" r="1" gradientUnits="userSpaceOnUse" gradientTransform="translate(64.4038 92.1376) rotate(29.9601) scale(52.5634 45.4846)">
<stop stop-color="#42E8E0"/>
<stop offset="0.0142738" stop-color="#40DED8"/>
<stop offset="0.8226" stop-color="#0F133B" stop-opacity="0"/>
</radialGradient>
<radialGradient id="paint21_radial_2547_5060" cx="0" cy="0" r="1" gradientUnits="userSpaceOnUse" gradientTransform="translate(141.504 50.0171) scale(7.64683 7.63432)">
<stop stop-color="#42E8E0"/>
<stop offset="0.0142738" stop-color="#40DED8"/>
<stop offset="0.8226" stop-color="#0F133B" stop-opacity="0"/>
</radialGradient>
<radialGradient id="paint22_radial_2547_5060" cx="0" cy="0" r="1" gradientUnits="userSpaceOnUse" gradientTransform="translate(64.406 94.5481) scale(7.64683 7.63432)">
<stop stop-color="#42E8E0"/>
<stop offset="0.0142738" stop-color="#40DED8"/>
<stop offset="0.8226" stop-color="#0F133B" stop-opacity="0"/>
</radialGradient>
<radialGradient id="paint23_radial_2547_5060" cx="0" cy="0" r="1" gradientUnits="userSpaceOnUse" gradientTransform="translate(231.758 135.964) scale(7.64683 7.63432)">
<stop stop-color="#42E8E0"/>
<stop offset="0.0142738" stop-color="#40DED8"/>
<stop offset="0.8226" stop-color="#0F133B" stop-opacity="0"/>
</radialGradient>
<radialGradient id="paint24_radial_2547_5060" cx="0" cy="0" r="1" gradientUnits="userSpaceOnUse" gradientTransform="translate(245.934 127.624) scale(7.64683 7.63432)">
<stop stop-color="#42E8E0"/>
<stop offset="0.0142738" stop-color="#40DED8"/>
<stop offset="0.8226" stop-color="#0F133B" stop-opacity="0"/>
</radialGradient>
<radialGradient id="paint25_radial_2547_5060" cx="0" cy="0" r="1" gradientUnits="userSpaceOnUse" gradientTransform="translate(260.109 119.411) scale(7.64683 7.63432)">
<stop stop-color="#42E8E0"/>
<stop offset="0.0142738" stop-color="#40DED8"/>
<stop offset="0.8226" stop-color="#0F133B" stop-opacity="0"/>
</radialGradient>
</defs>
</svg>
