<svg width="325" height="302" viewBox="0 0 325 302" fill="none" xmlns="http://www.w3.org/2000/svg">
<rect x="10" y="1" width="315" height="301" rx="20" fill="black"/>
<path d="M165.995 287.36C162.767 287.36 159.624 286.683 157.33 285.413L55.983 227.082C53.6893 225.812 52.5 223.949 52.5 222.002C52.5 219.632 54.284 217.177 57.4272 215.399L155.886 158.76C161.748 155.374 170.752 155.035 175.85 157.914L277.197 216.245C279.49 217.515 280.68 219.378 280.68 221.325C280.68 223.695 278.896 226.151 275.752 227.928L177.294 284.567C174.066 286.345 169.903 287.36 165.995 287.36ZM167.184 156.221C163.362 156.221 159.284 157.152 156.141 159.014L57.5971 215.653C54.6238 217.346 52.8398 219.632 52.8398 221.918C52.8398 223.78 54.0291 225.473 56.1529 226.659L157.5 284.99C162.512 287.868 171.262 287.53 177.039 284.143L275.498 227.505C278.471 225.812 280.255 223.526 280.255 221.24C280.255 219.378 279.066 217.684 276.942 216.499L175.595 158.168C173.386 156.898 170.328 156.221 167.184 156.221Z" fill="#F2C94C"/>
<path opacity="0.3" d="M140.762 213.622C187.023 213.622 224.524 192.054 224.524 165.449C224.524 138.845 187.023 117.277 140.762 117.277C94.5016 117.277 57 138.845 57 165.449C57 192.054 94.5016 213.622 140.762 213.622Z" fill="url(#paint0_radial_2547_5147)"/>
<path opacity="0.3" d="M231.239 301.247C277.499 301.247 315.001 279.679 315.001 253.074C315.001 226.47 277.499 204.902 231.239 204.902C184.978 204.902 147.477 226.47 147.477 253.074C147.477 279.679 184.978 301.247 231.239 301.247Z" fill="url(#paint1_radial_2547_5147)"/>
<path opacity="0.3" d="M64.3932 246.3C99.9566 246.3 128.786 229.698 128.786 209.218C128.786 188.739 99.9566 172.137 64.3932 172.137C28.8298 172.137 0 188.739 0 209.218C0 229.698 28.8298 246.3 64.3932 246.3Z" fill="url(#paint2_radial_2547_5147)"/>
<path d="M141.528 174.762C145.751 174.762 149.174 171.351 149.174 167.143C149.174 162.935 145.751 159.523 141.528 159.523C137.306 159.523 133.883 162.935 133.883 167.143C133.883 171.351 137.306 174.762 141.528 174.762Z" fill="url(#paint3_radial_2547_5147)"/>
<path d="M143.652 167.143C143.652 168.328 142.717 169.344 141.443 169.344C140.254 169.344 139.234 168.413 139.234 167.143C139.234 165.957 140.169 164.941 141.443 164.941C142.717 165.026 143.652 165.957 143.652 167.143Z" fill="#6EE8FC"/>
<path d="M64.3956 219.21C68.6182 219.21 72.0413 215.798 72.0413 211.59C72.0413 207.382 68.6182 203.971 64.3956 203.971C60.1731 203.971 56.75 207.382 56.75 211.59C56.75 215.798 60.1731 219.21 64.3956 219.21Z" fill="url(#paint4_radial_2547_5147)"/>
<path d="M66.605 211.59C66.605 212.775 65.6705 213.791 64.3962 213.791C63.2069 213.791 62.1875 212.86 62.1875 211.59C62.1875 210.405 63.122 209.389 64.3962 209.389C65.5856 209.473 66.605 210.405 66.605 211.59Z" fill="#F2C94C"/>
<path d="M231.747 260.608C235.97 260.608 239.393 257.197 239.393 252.989C239.393 248.781 235.97 245.369 231.747 245.369C227.525 245.369 224.102 248.781 224.102 252.989C224.102 257.197 227.525 260.608 231.747 260.608Z" fill="url(#paint5_radial_2547_5147)"/>
<path d="M231.748 255.189C232.968 255.189 233.957 254.204 233.957 252.988C233.957 251.773 232.968 250.787 231.748 250.787C230.528 250.787 229.539 251.773 229.539 252.988C229.539 254.204 230.528 255.189 231.748 255.189Z" fill="#F2C94C"/>
<path d="M245.935 252.227C250.157 252.227 253.58 248.816 253.58 244.608C253.58 240.4 250.157 236.988 245.935 236.988C241.712 236.988 238.289 240.4 238.289 244.608C238.289 248.816 241.712 252.227 245.935 252.227Z" fill="url(#paint6_radial_2547_5147)"/>
<path d="M248.144 244.607C248.144 245.793 247.21 246.809 245.935 246.809C244.746 246.809 243.727 245.877 243.727 244.607C243.727 243.422 244.661 242.406 245.935 242.406C247.125 242.491 248.144 243.422 248.144 244.607Z" fill="#F2C94C"/>
<path d="M260.122 244.014C264.345 244.014 267.768 240.603 267.768 236.395C267.768 232.187 264.345 228.775 260.122 228.775C255.9 228.775 252.477 232.187 252.477 236.395C252.477 240.603 255.9 244.014 260.122 244.014Z" fill="url(#paint7_radial_2547_5147)"/>
<path d="M262.332 236.395C262.332 237.58 261.397 238.596 260.123 238.596C258.933 238.596 257.914 237.664 257.914 236.395C257.914 235.125 258.849 234.193 260.123 234.193C261.312 234.278 262.332 235.209 262.332 236.395Z" fill="#F2C94C"/>
<path d="M156.906 268.566L84.6974 226.997C79.1756 223.865 79.9401 218.362 86.2265 214.722L155.377 174.931C161.748 171.291 171.263 170.867 176.785 174.084L248.994 215.653C254.515 218.785 253.751 224.288 247.464 227.929L178.314 267.719C172.027 271.36 162.428 271.698 156.906 268.566Z" fill="#211E00"/>
<path d="M261.909 178.824V163.923H223.426L177.892 137.763C171.775 134.292 161.241 134.715 154.191 138.779L110.356 164.008H71.7876V179.755C71.6177 182.126 72.9769 184.411 75.8653 186.105L155.805 232.16C161.921 235.631 172.455 235.208 179.506 231.144L256.047 187.121C260.21 184.581 262.164 181.618 261.909 178.824Z" fill="#312A91"/>
<path opacity="0.5" d="M261.909 178.824V163.923H223.426L177.892 137.763C171.775 134.292 161.241 134.715 154.191 138.779L110.356 164.008H71.7876V179.755C71.6177 182.126 72.9769 184.411 75.8653 186.105L155.805 232.16C161.921 235.631 172.455 235.208 179.506 231.144L256.047 187.121C260.21 184.581 262.164 181.618 261.909 178.824Z" fill="url(#paint8_linear_2547_5147)"/>
<g style="mix-blend-mode:overlay">
<path d="M90.7619 177.2V181.732C90.6077 181.858 90.3695 181.954 90.0473 182.019C89.7252 182.08 89.31 182.053 88.8019 181.938C88.2937 181.823 87.6789 181.558 86.9575 181.142C86.3178 180.773 85.7348 180.317 85.2085 179.772C84.6822 179.223 84.2285 178.603 83.8474 177.912C83.4708 177.223 83.1804 176.48 82.9762 175.681C82.7721 174.878 82.67 174.036 82.67 173.156V172.441C82.67 171.561 82.7675 170.835 82.9626 170.261C83.1623 169.69 83.4458 169.275 83.8133 169.015C84.1808 168.756 84.6187 168.65 85.1268 168.696C85.635 168.743 86.1998 168.946 86.8214 169.304C87.6835 169.801 88.3913 170.371 88.9448 171.015C89.4983 171.653 89.9203 172.342 90.2107 173.08C90.5056 173.816 90.6871 174.569 90.7551 175.342L88.7747 174.2C88.7247 173.784 88.6295 173.391 88.4888 173.022C88.3482 172.653 88.1463 172.312 87.8831 171.998C87.6245 171.686 87.2888 171.411 86.8759 171.173C86.5356 170.977 86.2316 170.883 85.9639 170.891C85.7008 170.897 85.4784 171.002 85.297 171.206C85.1155 171.41 84.9771 171.713 84.8818 172.114C84.7865 172.514 84.7389 173.016 84.7389 173.618V174.349C84.7389 174.946 84.7888 175.503 84.8886 176.022C84.9884 176.535 85.1359 177.005 85.331 177.431C85.5306 177.855 85.7756 178.23 86.066 178.554C86.3564 178.879 86.6944 179.152 87.08 179.374C87.4022 179.56 87.6699 179.683 87.8831 179.743C88.1009 179.806 88.2756 179.83 88.4072 179.817C88.5433 179.801 88.6476 179.772 88.7202 179.731V177.704L86.8555 176.629V174.948L90.7619 177.2ZM101.145 183.177V183.719C101.145 184.588 101.043 185.31 100.839 185.883C100.635 186.457 100.347 186.88 99.9746 187.152C99.6025 187.42 99.1579 187.533 98.6407 187.491C98.128 187.452 97.5586 187.252 96.9324 186.891C96.3108 186.533 95.7414 186.077 95.2242 185.522C94.7115 184.97 94.2669 184.344 93.8903 183.645C93.5137 182.941 93.2211 182.183 93.0124 181.372C92.8082 180.563 92.7061 179.724 92.7061 178.854V178.312C92.7061 177.438 92.8082 176.716 93.0124 176.148C93.2165 175.575 93.5046 175.151 93.8767 174.879C94.2533 174.609 94.6979 174.493 95.2106 174.532C95.7278 174.574 96.2972 174.774 96.9188 175.132C97.5449 175.493 98.1143 175.949 98.627 176.502C99.1443 177.056 99.5889 177.684 99.961 178.386C100.338 179.09 100.628 179.846 100.832 180.655C101.041 181.462 101.145 182.302 101.145 183.177ZM99.083 182.53V181.972C99.083 181.365 99.0354 180.803 98.9401 180.288C98.8448 179.772 98.7042 179.303 98.5182 178.882C98.3321 178.46 98.1053 178.094 97.8376 177.783C97.5699 177.466 97.2636 177.208 96.9188 177.009C96.574 176.811 96.2677 176.715 96.0001 176.723C95.7369 176.729 95.5123 176.835 95.3263 177.042C95.1448 177.252 95.0064 177.559 94.9111 177.965C94.8159 178.371 94.7682 178.878 94.7682 179.485V180.043C94.7682 180.645 94.8159 181.207 94.9111 181.728C95.0064 182.244 95.1471 182.715 95.3331 183.142C95.5191 183.563 95.746 183.932 96.0137 184.249C96.2814 184.565 96.5876 184.823 96.9324 185.022C97.2773 185.221 97.5835 185.316 97.8512 185.308C98.1189 185.3 98.3435 185.191 98.525 184.981C98.7064 184.767 98.8448 184.456 98.9401 184.05C99.0354 183.639 99.083 183.132 99.083 182.53ZM109.582 192.187V194.026L104.593 191.15V189.312L109.582 192.187ZM105.254 180.093V191.531L103.212 190.354V178.916L105.254 180.093ZM114.391 196.798L112.234 195.554L112.248 193.724L114.391 194.96C114.927 195.268 115.378 195.39 115.746 195.324C116.113 195.253 116.39 195.001 116.576 194.569C116.767 194.14 116.862 193.543 116.862 192.778V192.22C116.862 191.634 116.807 191.086 116.698 190.579C116.594 190.073 116.438 189.609 116.229 189.185C116.02 188.761 115.764 188.385 115.46 188.058C115.156 187.726 114.806 187.446 114.412 187.218L112.193 185.939V184.093L114.412 185.372C115.074 185.754 115.68 186.234 116.229 186.812C116.782 187.388 117.261 188.033 117.665 188.748C118.069 189.462 118.379 190.217 118.597 191.013C118.82 191.806 118.931 192.612 118.931 193.428V193.97C118.931 194.782 118.82 195.459 118.597 196.001C118.379 196.546 118.069 196.943 117.665 197.192C117.266 197.438 116.787 197.532 116.229 197.472C115.675 197.409 115.063 197.185 114.391 196.798ZM113.391 184.784V196.221L111.349 195.044V183.607L113.391 184.784ZM86.7874 194.867L84.2421 193.4L84.2285 191.774L86.3655 193.006C86.742 193.223 87.0506 193.346 87.291 193.374C87.5315 193.398 87.7107 193.336 87.8287 193.189C87.9512 193.04 88.0124 192.808 88.0124 192.494C88.0124 192.138 87.9534 191.816 87.8355 191.528C87.722 191.242 87.5428 190.979 87.2978 190.739C87.0574 190.501 86.7466 190.272 86.3655 190.052L84.9499 189.236V198.827L82.9082 197.651V186.213L86.3655 188.206C86.9417 188.538 87.4566 188.898 87.9103 189.285C88.3686 189.675 88.7565 190.09 89.0741 190.529C89.3917 190.969 89.6344 191.434 89.8023 191.923C89.9702 192.407 90.0541 192.917 90.0541 193.451C90.0541 193.922 89.9611 194.303 89.7751 194.594C89.5936 194.887 89.3055 195.046 88.9108 195.07C88.5206 195.096 88.0102 194.941 87.3795 194.603L86.7874 194.867ZM86.6989 199.836L83.684 198.098L84.4803 196.719L86.6989 197.997C87.0574 198.204 87.35 198.307 87.5769 198.307C87.8037 198.302 87.9716 198.215 88.0805 198.048C88.1894 197.88 88.2438 197.647 88.2438 197.348C88.2438 197.013 88.1939 196.694 88.0941 196.39C87.9988 196.089 87.8446 195.812 87.6313 195.558C87.4181 195.299 87.1368 195.068 86.7874 194.867L84.8206 193.733L84.8342 192.123L87.2842 193.535L87.7538 194.442C88.3572 194.78 88.8427 195.182 89.2102 195.651C89.5823 196.117 89.8522 196.6 90.0201 197.1C90.1925 197.602 90.2787 198.084 90.2787 198.545C90.2787 199.278 90.1403 199.816 89.8636 200.159C89.5868 200.497 89.1807 200.638 88.6454 200.58C88.1145 200.526 87.4657 200.278 86.6989 199.836ZM100.546 201.832V202.374C100.546 203.243 100.444 203.964 100.24 204.538C100.036 205.111 99.7477 205.535 99.3757 205.807C99.0036 206.074 98.559 206.187 98.0418 206.146C97.5291 206.107 96.9597 205.907 96.3335 205.546C95.7119 205.188 95.1425 204.731 94.6253 204.177C94.1126 203.624 93.668 202.999 93.2914 202.3C92.9148 201.596 92.6222 200.838 92.4135 200.027C92.2093 199.218 92.1072 198.379 92.1072 197.509V196.967C92.1072 196.093 92.2093 195.371 92.4135 194.803C92.6176 194.229 92.9057 193.806 93.2778 193.534C93.6544 193.264 94.099 193.148 94.6117 193.187C95.1289 193.229 95.6983 193.429 96.3199 193.787C96.946 194.148 97.5155 194.604 98.0281 195.156C98.5454 195.711 98.99 196.339 99.3621 197.041C99.7386 197.745 100.029 198.501 100.233 199.31C100.442 200.117 100.546 200.957 100.546 201.832ZM98.4841 201.185V200.627C98.4841 200.02 98.4365 199.458 98.3412 198.942C98.2459 198.427 98.1053 197.958 97.9193 197.537C97.7332 197.115 97.5064 196.749 97.2387 196.437C96.971 196.121 96.6647 195.863 96.3199 195.664C95.9751 195.465 95.6688 195.37 95.4012 195.378C95.138 195.384 94.9134 195.49 94.7274 195.697C94.5459 195.906 94.4075 196.214 94.3123 196.62C94.217 197.026 94.1693 197.533 94.1693 198.14V198.698C94.1693 199.3 94.217 199.862 94.3123 200.383C94.4075 200.898 94.5482 201.37 94.7342 201.796C94.9202 202.218 95.1471 202.587 95.4148 202.903C95.6825 203.22 95.9887 203.478 96.3335 203.677C96.6784 203.875 96.9846 203.971 97.2523 203.963C97.52 203.955 97.7446 203.846 97.9261 203.636C98.1075 203.421 98.2459 203.111 98.3412 202.705C98.4365 202.294 98.4841 201.787 98.4841 201.185ZM104.144 198.454L106.009 203.519L107.874 200.604L110.208 201.949L107.329 205.961L110.283 213.43L107.928 212.072L106.009 206.897L104.09 209.86L101.721 208.495L104.682 204.435L101.796 197.1L104.144 198.454Z" fill="#FFD861"/>
</g>
<path d="M177.895 137.68C175.007 135.986 171.014 135.224 166.852 135.309V234.278C171.269 234.193 175.941 233.092 179.594 230.976L256.136 186.952C260.213 184.582 262.167 181.619 261.912 178.825V163.924H223.429L177.895 137.68Z" fill="url(#paint9_linear_2547_5147)"/>
<path d="M155.891 216.245L75.9518 170.189C69.8352 166.718 70.5998 160.622 77.6508 156.559L154.192 112.535C161.243 108.471 171.862 108.048 177.894 111.519L257.833 157.575C263.949 161.046 263.185 167.141 256.134 171.205L179.593 215.229C172.542 219.293 161.923 219.716 155.891 216.245Z" fill="#312A91"/>
<path opacity="0.5" d="M155.891 216.245L75.9518 170.189C69.8352 166.718 70.5998 160.622 77.6508 156.559L154.192 112.535C161.243 108.471 171.862 108.048 177.894 111.519L257.833 157.575C263.949 161.046 263.185 167.141 256.134 171.205L179.593 215.229C172.542 219.293 161.923 219.716 155.891 216.245Z" fill="url(#paint10_linear_2547_5147)"/>
<path d="M158.012 206.085L93.5341 169.003C88.6069 166.209 89.2865 161.299 94.8933 157.997L156.568 122.524C162.26 119.307 170.755 118.884 175.682 121.762L240.16 158.844C245.088 161.638 244.408 166.548 238.801 169.85L177.126 205.323C171.435 208.54 162.939 208.878 158.012 206.085Z" fill="#F2C94C"/>
<path d="M94.9774 162.823L156.652 127.35C162.344 124.133 170.839 123.71 175.766 126.588L240.244 163.67C241.434 164.347 242.283 165.193 242.878 166.125C244.322 163.5 243.473 160.791 240.244 158.929L175.766 121.847C170.839 119.053 162.344 119.392 156.652 122.609L94.9774 158.082C90.7299 160.537 89.2857 163.924 90.9847 166.633C91.6643 165.278 93.0236 163.924 94.9774 162.823Z" fill="#FFD760"/>
<path opacity="0.5" d="M158.524 216.244L78.5843 170.189C72.4678 166.718 71.0236 161.553 80.2833 156.558L156.825 112.535C160.308 110.588 164.555 109.402 168.803 109.233C163.791 108.979 158.354 110.164 154.106 112.535L77.5648 156.558C70.5139 160.622 69.7493 166.718 75.8658 170.189L155.805 216.244C158.863 218.022 163.196 218.784 167.528 218.53C164.215 218.446 160.987 217.684 158.524 216.244Z" fill="url(#paint11_linear_2547_5147)"/>
<path opacity="0.5" d="M256.132 177.893L179.591 221.917C172.54 225.981 161.921 226.404 155.89 222.933L75.8653 176.877C72.9769 175.184 71.6177 172.898 71.7876 170.528V173.745C71.6177 176.115 72.9769 178.401 75.8653 180.094L155.805 226.15C161.921 229.621 172.455 229.198 179.506 225.134L256.047 181.11C260.125 178.74 262.079 175.777 261.824 172.983V169.766C262.164 172.559 260.21 175.523 256.132 177.893Z" fill="url(#paint12_linear_2547_5147)"/>
<path d="M242.288 173.491C243.138 173.999 243.138 174.846 242.288 175.269C241.439 175.777 239.994 175.777 239.145 175.269C238.295 174.761 238.295 173.915 239.145 173.491C239.994 173.068 241.354 173.068 242.288 173.491Z" fill="#FCCC6B"/>
<path d="M247.218 170.697C248.067 171.205 248.067 172.052 247.218 172.475C246.368 172.899 244.924 172.983 244.075 172.475C243.225 171.967 243.225 171.121 244.075 170.697C244.924 170.189 246.283 170.189 247.218 170.697Z" fill="#FCCC6B"/>
<path d="M252.14 167.903C252.989 168.411 252.989 169.257 252.14 169.681C251.29 170.189 249.846 170.189 248.997 169.681C248.147 169.173 248.147 168.326 248.997 167.903C249.846 167.479 251.205 167.395 252.14 167.903Z" fill="#FCCC6B"/>
<g style="mix-blend-mode:overlay">
<path d="M199.4 203.307L198.653 207.778C198.464 208.078 198.187 208.446 197.824 208.879C197.461 209.308 197.011 209.756 196.473 210.225C195.936 210.693 195.306 211.135 194.585 211.551C193.945 211.92 193.382 212.137 192.895 212.203C192.41 212.264 192.015 212.171 191.712 211.926C191.413 211.678 191.217 211.277 191.125 210.724C191.034 210.165 191.061 209.451 191.206 208.583L191.324 207.878C191.469 207.011 191.696 206.182 192.004 205.393C192.316 204.601 192.695 203.867 193.14 203.19C193.586 202.514 194.083 201.908 194.631 201.372C195.18 200.836 195.765 200.389 196.387 200.031C197.249 199.534 197.93 199.286 198.43 199.287C198.931 199.283 199.279 199.479 199.476 199.875C199.677 200.263 199.752 200.799 199.699 201.483L197.719 202.624C197.733 202.271 197.693 201.992 197.6 201.789C197.507 201.586 197.342 201.481 197.105 201.472C196.874 201.461 196.551 201.575 196.138 201.813C195.798 202.009 195.481 202.264 195.186 202.578C194.897 202.885 194.636 203.243 194.404 203.652C194.172 204.062 193.97 204.519 193.8 205.023C193.63 205.527 193.495 206.076 193.395 206.67L193.275 207.391C193.177 207.98 193.139 208.473 193.163 208.87C193.188 209.262 193.272 209.556 193.415 209.754C193.564 209.943 193.771 210.032 194.035 210.02C194.3 210.007 194.625 209.89 195.01 209.668C195.333 209.482 195.605 209.297 195.829 209.112C196.057 208.924 196.244 208.749 196.391 208.585C196.542 208.413 196.661 208.266 196.748 208.141L197.082 206.142L195.217 207.217L195.494 205.559L199.4 203.307ZM209.785 197.314L209.696 197.849C209.552 198.707 209.322 199.535 209.004 200.334C208.685 201.134 208.3 201.881 207.848 202.576C207.397 203.266 206.891 203.886 206.332 204.437C205.777 204.986 205.186 205.441 204.56 205.802C203.938 206.16 203.39 206.362 202.915 206.407C202.445 206.449 202.061 206.341 201.764 206.083C201.467 205.82 201.272 205.407 201.177 204.846C201.087 204.282 201.113 203.571 201.257 202.713L201.346 202.179C201.49 201.316 201.721 200.488 202.038 199.693C202.356 198.894 202.741 198.147 203.193 197.452C203.65 196.754 204.156 196.131 204.711 195.583C205.271 195.032 205.861 194.577 206.483 194.219C207.109 193.858 207.657 193.656 208.128 193.614C208.603 193.569 208.986 193.679 209.278 193.945C209.574 194.208 209.767 194.622 209.858 195.186C209.953 195.742 209.929 196.452 209.785 197.314ZM207.633 199.038L207.725 198.488C207.825 197.888 207.866 197.389 207.847 196.989C207.827 196.59 207.75 196.289 207.616 196.086C207.482 195.883 207.294 195.782 207.052 195.781C206.811 195.775 206.518 195.872 206.173 196.07C205.829 196.269 205.509 196.526 205.215 196.84C204.926 197.147 204.662 197.509 204.424 197.926C204.191 198.34 203.989 198.802 203.818 199.312C203.646 199.821 203.511 200.375 203.411 200.975L203.319 201.525C203.219 202.119 203.179 202.618 203.197 203.023C203.217 203.423 203.293 203.726 203.427 203.934C203.561 204.137 203.748 204.241 203.989 204.247C204.23 204.253 204.523 204.156 204.868 203.958C205.213 203.759 205.532 203.502 205.827 203.188C206.121 202.873 206.385 202.509 206.618 202.094C206.853 201.675 207.055 201.21 207.226 200.701C207.399 200.186 207.534 199.632 207.633 199.038ZM217.538 196.542L217.235 198.355L212.247 201.231L212.55 199.418L217.538 196.542ZM214.792 189.569L212.907 200.85L210.865 202.027L212.75 190.746L214.792 189.569ZM222.045 195.583L219.887 196.827L220.204 195.006L222.348 193.77C222.883 193.462 223.357 193.064 223.771 192.579C224.185 192.088 224.529 191.523 224.804 190.884C225.083 190.242 225.286 189.544 225.412 188.79L225.504 188.24C225.601 187.661 225.631 187.184 225.596 186.808C225.565 186.429 225.47 186.15 225.311 185.97C225.153 185.791 224.934 185.714 224.655 185.74C224.377 185.76 224.04 185.884 223.646 186.111L221.427 187.39L221.731 185.569L223.95 184.29C224.612 183.909 225.196 183.689 225.702 183.63C226.213 183.565 226.631 183.653 226.956 183.895C227.28 184.138 227.496 184.527 227.603 185.062C227.716 185.59 227.705 186.257 227.57 187.063L227.481 187.597C227.347 188.398 227.114 189.193 226.781 189.982C226.453 190.769 226.047 191.516 225.564 192.224C225.086 192.924 224.547 193.564 223.946 194.144C223.35 194.717 222.716 195.196 222.045 195.583ZM222.929 184.879L221.044 196.16L219.003 197.337L220.887 186.056L222.929 184.879ZM192.137 225.284L189.592 226.751L189.845 225.162L191.982 223.931C192.358 223.714 192.676 223.482 192.934 223.235C193.194 222.982 193.4 222.716 193.554 222.437C193.712 222.149 193.818 221.85 193.869 221.54C193.928 221.189 193.916 220.939 193.835 220.79C193.758 220.638 193.605 220.584 193.376 220.627C193.152 220.668 192.849 220.798 192.468 221.018L191.053 221.833L189.472 231.294L187.43 232.471L189.315 221.19L192.772 219.197C193.349 218.865 193.853 218.63 194.286 218.492C194.724 218.352 195.08 218.317 195.356 218.387C195.631 218.457 195.82 218.637 195.923 218.928C196.027 219.213 196.035 219.62 195.947 220.147C195.87 220.611 195.705 221.094 195.453 221.593C195.206 222.091 194.865 222.577 194.428 223.052C193.997 223.525 193.464 223.956 192.829 224.346L192.137 225.284ZM191.221 230.285L188.206 232.023L189.305 229.751L191.524 228.472C191.883 228.266 192.186 228.033 192.434 227.773C192.684 227.508 192.882 227.23 193.029 226.94C193.175 226.65 193.274 226.358 193.323 226.063C193.378 225.733 193.376 225.475 193.317 225.29C193.262 225.102 193.139 225.005 192.947 224.999C192.756 224.987 192.486 225.082 192.137 225.284L190.17 226.417L190.45 224.813L192.9 223.401L193.265 223.758C193.87 223.4 194.335 223.241 194.661 223.283C194.991 223.316 195.207 223.483 195.309 223.784C195.415 224.083 195.43 224.459 195.354 224.914C195.233 225.637 194.993 226.326 194.633 226.982C194.274 227.632 193.807 228.235 193.23 228.792C192.657 229.346 191.988 229.844 191.221 230.285ZM206.055 216.4L205.966 216.935C205.822 217.792 205.592 218.62 205.274 219.42C204.955 220.219 204.57 220.967 204.118 221.661C203.667 222.351 203.161 222.971 202.602 223.523C202.047 224.071 201.456 224.526 200.83 224.887C200.208 225.245 199.66 225.447 199.185 225.492C198.715 225.534 198.331 225.427 198.034 225.168C197.737 224.905 197.542 224.493 197.447 223.931C197.357 223.367 197.383 222.656 197.527 221.799L197.616 221.264C197.76 220.402 197.991 219.573 198.308 218.779C198.626 217.979 199.011 217.232 199.463 216.537C199.92 215.84 200.426 215.217 200.981 214.668C201.541 214.117 202.131 213.662 202.753 213.304C203.379 212.943 203.927 212.741 204.398 212.699C204.873 212.654 205.256 212.764 205.548 213.03C205.844 213.294 206.037 213.707 206.128 214.271C206.223 214.828 206.199 215.537 206.055 216.4ZM203.903 218.123L203.995 217.573C204.095 216.974 204.136 216.474 204.117 216.075C204.097 215.675 204.02 215.374 203.886 215.171C203.752 214.969 203.564 214.867 203.322 214.866C203.081 214.861 202.788 214.957 202.443 215.156C202.099 215.354 201.779 215.611 201.485 215.926C201.196 216.232 200.932 216.594 200.694 217.011C200.461 217.426 200.259 217.888 200.088 218.397C199.916 218.907 199.781 219.461 199.681 220.06L199.589 220.61C199.489 221.204 199.449 221.704 199.468 222.108C199.487 222.508 199.563 222.812 199.697 223.02C199.831 223.222 200.018 223.327 200.259 223.332C200.5 223.338 200.793 223.242 201.138 223.043C201.483 222.844 201.802 222.588 202.097 222.273C202.391 221.959 202.655 221.594 202.888 221.18C203.123 220.76 203.325 220.296 203.496 219.786C203.669 219.271 203.804 218.717 203.903 218.123ZM210.551 208.949L211.758 211.81L214.281 206.799L216.615 205.454L212.802 212.707L214.805 216.692L212.45 218.049L211.202 215.142L208.612 220.261L206.244 221.626L210.154 214.233L208.203 210.302L210.551 208.949Z" fill="#EFF24C"/>
</g>
<path opacity="0.5" d="M159.884 197.111L109.338 167.987C105.515 165.786 105.94 161.892 110.443 159.352L158.865 131.499C163.282 128.959 169.994 128.705 173.816 130.906L224.363 160.029C228.185 162.23 227.761 166.125 223.258 168.665L174.836 196.518C170.503 199.058 163.792 199.312 159.884 197.111Z" fill="#0B0244"/>
<path opacity="0.5" d="M261.909 163.924C261.909 163.67 261.909 163.332 261.909 163.078V121.509L195.647 121.763L177.892 111.519C171.775 108.048 161.241 108.471 154.191 112.535L137.625 122.102L71.7876 122.356V163.924C71.6177 166.295 72.9769 168.581 75.8653 170.274L155.805 216.329C161.921 219.801 172.455 219.377 179.506 215.313L256.047 171.29C259.785 169.089 261.739 166.464 261.909 163.924Z" fill="#F2C94C"/>
<path d="M261.909 121.509V106.609H223.426L177.892 80.4488C171.775 76.9777 161.241 77.401 154.191 81.4647L110.356 106.609H71.7876V122.356C71.6177 124.726 72.9769 127.012 75.8653 128.706L155.805 174.761C161.921 178.232 172.455 177.809 179.506 173.745L256.047 129.721C260.21 127.351 262.164 124.303 261.909 121.509Z" fill="#312A91"/>
<path opacity="0.5" d="M261.909 121.509V106.609H223.426L177.892 80.4488C171.775 76.9777 161.241 77.401 154.191 81.4647L110.356 106.609H71.7876V122.356C71.6177 124.726 72.9769 127.012 75.8653 128.706L155.805 174.761C161.921 178.232 172.455 177.809 179.506 173.745L256.047 129.721C260.21 127.351 262.164 124.303 261.909 121.509Z" fill="url(#paint13_linear_2547_5147)"/>
<path d="M177.895 80.4491C175.007 78.7559 171.014 77.9939 166.852 78.0786V177.047C171.269 176.963 175.941 175.862 179.594 173.745L256.136 129.722C260.213 127.351 262.167 124.388 261.912 121.594V106.609H223.429L177.895 80.4491Z" fill="url(#paint14_linear_2547_5147)"/>
<path d="M155.891 159.014L75.9518 112.959C69.8352 109.488 70.5998 103.392 77.6508 99.3283L154.192 55.3046C161.243 51.2409 171.862 50.8176 177.894 54.2887L257.833 100.344C263.949 103.815 263.185 109.911 256.134 113.975L179.593 157.998C172.542 162.062 161.923 162.485 155.891 159.014Z" fill="#312A91"/>
<path d="M155.891 159.014L75.9518 112.959C69.8352 109.488 70.5998 103.392 77.6508 99.3283L154.192 55.3046C161.243 51.2409 171.862 50.8176 177.894 54.2887L257.833 100.344C263.949 103.815 263.185 109.911 256.134 113.975L179.593 157.998C172.542 162.062 161.923 162.485 155.891 159.014Z" fill="url(#paint15_linear_2547_5147)"/>
<path opacity="0.5" d="M158.524 159.014L78.5843 112.958C72.4678 109.487 71.0236 104.323 80.2833 99.328L156.825 55.3043C160.308 53.3571 164.555 52.1719 168.803 52.0025C163.791 51.7486 158.354 52.9338 154.106 55.3043L77.5648 99.328C70.5139 103.392 69.7493 109.487 75.8658 112.958L155.805 159.014C158.863 160.792 163.196 161.554 167.528 161.3C164.215 161.131 160.987 160.369 158.524 159.014Z" fill="url(#paint16_linear_2547_5147)"/>
<path opacity="0.5" d="M256.133 120.579L179.592 164.602C172.541 168.666 161.922 169.089 155.891 165.618L75.9512 119.563C73.0629 117.869 71.7036 115.584 71.8735 113.213V116.43C71.7036 118.801 73.0629 121.087 75.9512 122.78L155.891 168.835C162.007 172.306 172.541 171.883 179.592 167.819L256.133 123.796C260.211 121.425 262.165 118.462 261.91 115.668V112.451C262.165 115.245 260.211 118.293 256.133 120.579Z" fill="url(#paint17_linear_2547_5147)"/>
<path opacity="0.2" d="M160.478 109.996C162.177 110.928 162.177 112.536 160.478 113.467C158.779 114.399 156.145 114.399 154.446 113.467C152.747 112.536 152.747 110.928 154.446 109.996C156.145 108.98 158.864 108.98 160.478 109.996Z" fill="#F9FC6E"/>
<path opacity="0.6" d="M169.907 104.577C171.606 105.509 171.606 107.117 169.907 108.048C168.208 108.98 165.575 108.98 163.876 108.048C162.177 107.117 162.177 105.509 163.876 104.577C165.49 103.646 168.208 103.646 169.907 104.577Z" fill="#F9FC6E"/>
<path d="M179.251 99.1594C180.95 100.091 180.95 101.699 179.251 102.63C177.552 103.562 174.919 103.562 173.22 102.63C171.521 101.699 171.521 100.091 173.22 99.1594C174.919 98.2281 177.552 98.2281 179.251 99.1594Z" fill="#F9FC6E"/>
<path opacity="0.5" d="M166.34 147.669C163.367 147.669 160.563 147.077 158.439 145.891L99.3131 111.858C97.1893 110.588 96 108.895 96 106.947C96 104.661 97.699 102.376 100.587 100.682L157.165 68.1726C162.517 65.1248 170.672 64.7862 175.26 67.4107L234.386 101.444C236.51 102.714 237.699 104.407 237.699 106.355C237.699 108.641 236 110.926 233.112 112.62L176.534 145.214C173.646 146.823 169.908 147.669 166.34 147.669ZM159.034 144.791C163.367 147.246 170.927 146.992 175.939 144.029L232.517 111.434C235.066 109.995 236.51 108.048 236.51 106.27C236.51 104.831 235.575 103.392 233.791 102.376L174.665 68.3419C170.333 65.8868 162.772 66.1407 157.76 69.1039L101.182 101.698C98.6335 103.138 97.1893 105.085 97.1893 106.863C97.1893 108.302 98.1238 109.741 99.9078 110.757L159.034 144.791Z" fill="#0B0244"/>
<path d="M165.995 170.866C162.767 170.866 159.624 170.189 157.33 168.919L55.983 110.588C53.6893 109.318 52.5 107.455 52.5 105.508C52.5 103.138 54.284 100.682 57.4272 98.9045L155.886 42.2663C161.748 38.8799 170.752 38.5412 175.85 41.4197L277.197 99.7511C279.49 101.021 280.68 102.884 280.68 104.831C280.68 107.201 278.896 109.656 275.752 111.434L177.294 168.073C174.066 169.935 169.903 170.866 165.995 170.866ZM167.184 39.8111C163.362 39.8111 159.284 40.7424 156.141 42.605L57.5971 99.2431C54.6238 100.936 52.8398 103.222 52.8398 105.508C52.8398 107.371 54.0291 109.064 56.1529 110.249L157.5 168.58C162.512 171.459 171.262 171.12 177.039 167.734L275.498 111.096C278.471 109.402 280.255 107.117 280.255 104.831C280.255 102.968 279.066 101.275 276.942 100.09L175.68 41.7583C173.386 40.4884 170.328 39.8111 167.184 39.8111Z" fill="#F2D74C"/>
<path opacity="0.3" d="M140.762 97.1274C187.023 97.1274 224.524 75.56 224.524 48.9553C224.524 22.3506 187.023 0.783203 140.762 0.783203C94.5016 0.783203 57 22.3506 57 48.9553C57 75.56 94.5016 97.1274 140.762 97.1274Z" fill="url(#paint18_radial_2547_5147)"/>
<path opacity="0.3" d="M231.239 184.836C277.499 184.836 315.001 163.269 315.001 136.664C315.001 110.06 277.499 88.4922 231.239 88.4922C184.978 88.4922 147.477 110.06 147.477 136.664C147.477 163.269 184.978 184.836 231.239 184.836Z" fill="url(#paint19_radial_2547_5147)"/>
<path opacity="0.3" d="M64.3932 129.808C99.9566 129.808 128.786 113.206 128.786 92.726C128.786 72.2465 99.9566 55.6445 64.3932 55.6445C28.8298 55.6445 0 72.2465 0 92.726C0 113.206 28.8298 129.808 64.3932 129.808Z" fill="url(#paint20_radial_2547_5147)"/>
<path d="M141.528 58.3523C145.751 58.3523 149.174 54.9409 149.174 50.7328C149.174 46.5246 145.751 43.1133 141.528 43.1133C137.306 43.1133 133.883 46.5246 133.883 50.7328C133.883 54.9409 137.306 58.3523 141.528 58.3523Z" fill="url(#paint21_radial_2547_5147)"/>
<path d="M143.652 50.7324C143.652 51.9177 142.717 52.9336 141.443 52.9336C140.254 52.9336 139.234 52.0023 139.234 50.7324C139.234 49.5472 140.169 48.5312 141.443 48.5312C142.717 48.5312 143.652 49.5472 143.652 50.7324Z" fill="#F9FC6E"/>
<path d="M64.3956 102.8C68.6182 102.8 72.0413 99.3882 72.0413 95.18C72.0413 90.9719 68.6182 87.5605 64.3956 87.5605C60.1731 87.5605 56.75 90.9719 56.75 95.18C56.75 99.3882 60.1731 102.8 64.3956 102.8Z" fill="url(#paint22_radial_2547_5147)"/>
<path d="M64.3962 97.3809C65.6161 97.3809 66.605 96.3954 66.605 95.1797C66.605 93.964 65.6161 92.9785 64.3962 92.9785C63.1764 92.9785 62.1875 93.964 62.1875 95.1797C62.1875 96.3954 63.1764 97.3809 64.3962 97.3809Z" fill="#F9FC6E"/>
<path d="M231.747 144.114C235.97 144.114 239.393 140.703 239.393 136.494C239.393 132.286 235.97 128.875 231.747 128.875C227.525 128.875 224.102 132.286 224.102 136.494C224.102 140.703 227.525 144.114 231.747 144.114Z" fill="url(#paint23_radial_2547_5147)"/>
<path d="M233.957 136.494C233.957 137.679 233.022 138.695 231.748 138.695C230.558 138.695 229.539 137.764 229.539 136.494C229.539 135.309 230.474 134.293 231.748 134.293C232.937 134.293 233.957 135.309 233.957 136.494Z" fill="#F9FC6E"/>
<path d="M245.935 135.817C250.157 135.817 253.58 132.406 253.58 128.198C253.58 123.989 250.157 120.578 245.935 120.578C241.712 120.578 238.289 123.989 238.289 128.198C238.289 132.406 241.712 135.817 245.935 135.817Z" fill="url(#paint24_radial_2547_5147)"/>
<path d="M245.935 130.398C247.155 130.398 248.144 129.413 248.144 128.197C248.144 126.982 247.155 125.996 245.935 125.996C244.715 125.996 243.727 126.982 243.727 128.197C243.727 129.413 244.715 130.398 245.935 130.398Z" fill="#F9FC6E"/>
<path d="M260.122 127.606C264.345 127.606 267.768 124.195 267.768 119.987C267.768 115.779 264.345 112.367 260.122 112.367C255.9 112.367 252.477 115.779 252.477 119.987C252.477 124.195 255.9 127.606 260.122 127.606Z" fill="url(#paint25_radial_2547_5147)"/>
<path d="M262.332 119.986C262.332 121.172 261.397 122.188 260.123 122.188C258.933 122.188 257.914 121.256 257.914 119.986C257.914 118.801 258.849 117.785 260.123 117.785C261.312 117.785 262.332 118.801 262.332 119.986Z" fill="#F9FC6E"/>
<rect x="83.5" y="126" width="166" height="60" rx="20" fill="#0F182E"/>
<path d="M108.333 139.047V149H107.034V139.047H108.333ZM111.532 139.047V140.127H103.842V139.047H111.532ZM114.191 141.604V149H112.92V141.604H114.191ZM112.824 139.642C112.824 139.437 112.886 139.263 113.009 139.122C113.136 138.981 113.323 138.91 113.569 138.91C113.811 138.91 113.995 138.981 114.123 139.122C114.255 139.263 114.321 139.437 114.321 139.642C114.321 139.838 114.255 140.006 114.123 140.147C113.995 140.284 113.811 140.353 113.569 140.353C113.323 140.353 113.136 140.284 113.009 140.147C112.886 140.006 112.824 139.838 112.824 139.642ZM117.479 143.073V149H116.208V141.604H117.411L117.479 143.073ZM117.22 145.021L116.632 145.001C116.636 144.495 116.702 144.028 116.83 143.6C116.958 143.167 117.147 142.791 117.397 142.472C117.648 142.153 117.96 141.907 118.334 141.733C118.708 141.556 119.141 141.467 119.633 141.467C119.979 141.467 120.298 141.517 120.59 141.617C120.882 141.713 121.134 141.866 121.349 142.075C121.563 142.285 121.729 142.554 121.848 142.882C121.966 143.21 122.025 143.606 122.025 144.071V149H120.761V144.133C120.761 143.745 120.695 143.436 120.562 143.203C120.435 142.971 120.253 142.802 120.016 142.697C119.779 142.588 119.501 142.533 119.182 142.533C118.808 142.533 118.496 142.599 118.245 142.731C117.994 142.864 117.794 143.046 117.644 143.278C117.493 143.511 117.384 143.777 117.315 144.078C117.252 144.374 117.22 144.689 117.22 145.021ZM122.012 144.324L121.164 144.584C121.169 144.178 121.235 143.789 121.362 143.415C121.494 143.041 121.684 142.709 121.93 142.417C122.18 142.125 122.488 141.895 122.853 141.727C123.217 141.553 123.634 141.467 124.104 141.467C124.5 141.467 124.851 141.519 125.156 141.624C125.466 141.729 125.726 141.891 125.936 142.109C126.15 142.324 126.312 142.599 126.421 142.937C126.53 143.274 126.585 143.675 126.585 144.14V149H125.313V144.126C125.313 143.711 125.247 143.39 125.115 143.162C124.988 142.93 124.805 142.768 124.568 142.677C124.336 142.581 124.058 142.533 123.734 142.533C123.456 142.533 123.21 142.581 122.996 142.677C122.782 142.772 122.602 142.905 122.456 143.073C122.31 143.237 122.199 143.426 122.121 143.641C122.048 143.855 122.012 144.083 122.012 144.324ZM131.568 149.137C131.053 149.137 130.586 149.05 130.167 148.877C129.752 148.699 129.395 148.451 129.094 148.132C128.798 147.813 128.57 147.435 128.41 146.997C128.251 146.56 128.171 146.081 128.171 145.562V145.274C128.171 144.673 128.26 144.137 128.438 143.668C128.615 143.194 128.857 142.793 129.162 142.465C129.467 142.137 129.814 141.888 130.201 141.72C130.589 141.551 130.99 141.467 131.404 141.467C131.933 141.467 132.389 141.558 132.771 141.74C133.159 141.923 133.476 142.178 133.722 142.506C133.968 142.829 134.15 143.212 134.269 143.654C134.387 144.092 134.446 144.57 134.446 145.09V145.657H128.923V144.625H133.182V144.529C133.163 144.201 133.095 143.882 132.977 143.572C132.863 143.262 132.68 143.007 132.43 142.807C132.179 142.606 131.837 142.506 131.404 142.506C131.117 142.506 130.853 142.567 130.611 142.69C130.37 142.809 130.162 142.987 129.989 143.224C129.816 143.461 129.682 143.75 129.586 144.092C129.49 144.434 129.442 144.828 129.442 145.274V145.562C129.442 145.912 129.49 146.243 129.586 146.553C129.686 146.858 129.83 147.127 130.017 147.359C130.208 147.592 130.438 147.774 130.707 147.906C130.98 148.038 131.29 148.104 131.637 148.104C132.083 148.104 132.462 148.013 132.771 147.831C133.081 147.649 133.353 147.405 133.585 147.1L134.351 147.708C134.191 147.95 133.988 148.18 133.742 148.398C133.496 148.617 133.193 148.795 132.833 148.932C132.478 149.068 132.056 149.137 131.568 149.137ZM142.991 139.047V149H141.692V139.047H142.991ZM146.19 139.047V140.127H138.5V139.047H146.19ZM146.457 145.384V145.227C146.457 144.693 146.535 144.199 146.689 143.743C146.844 143.283 147.068 142.884 147.359 142.547C147.651 142.205 148.004 141.941 148.419 141.754C148.834 141.562 149.299 141.467 149.813 141.467C150.333 141.467 150.8 141.562 151.215 141.754C151.634 141.941 151.99 142.205 152.281 142.547C152.577 142.884 152.803 143.283 152.958 143.743C153.113 144.199 153.19 144.693 153.19 145.227V145.384C153.19 145.917 153.113 146.411 152.958 146.867C152.803 147.323 152.577 147.722 152.281 148.063C151.99 148.401 151.636 148.665 151.222 148.856C150.812 149.043 150.347 149.137 149.827 149.137C149.308 149.137 148.84 149.043 148.426 148.856C148.011 148.665 147.656 148.401 147.359 148.063C147.068 147.722 146.844 147.323 146.689 146.867C146.535 146.411 146.457 145.917 146.457 145.384ZM147.722 145.227V145.384C147.722 145.753 147.765 146.102 147.852 146.43C147.938 146.753 148.068 147.04 148.241 147.291C148.419 147.542 148.64 147.74 148.904 147.886C149.169 148.027 149.476 148.098 149.827 148.098C150.174 148.098 150.477 148.027 150.736 147.886C151.001 147.74 151.219 147.542 151.393 147.291C151.566 147.04 151.696 146.753 151.782 146.43C151.873 146.102 151.919 145.753 151.919 145.384V145.227C151.919 144.862 151.873 144.518 151.782 144.194C151.696 143.866 151.563 143.577 151.386 143.326C151.213 143.071 150.994 142.87 150.729 142.725C150.47 142.579 150.164 142.506 149.813 142.506C149.467 142.506 149.162 142.579 148.897 142.725C148.638 142.87 148.419 143.071 148.241 143.326C148.068 143.577 147.938 143.866 147.852 144.194C147.765 144.518 147.722 144.862 147.722 145.227ZM166.097 139.047V149H164.771L159.76 141.323V149H158.44V139.047H159.76L164.791 146.744V139.047H166.097ZM171.312 149.137C170.798 149.137 170.33 149.05 169.911 148.877C169.496 148.699 169.139 148.451 168.838 148.132C168.542 147.813 168.314 147.435 168.154 146.997C167.995 146.56 167.915 146.081 167.915 145.562V145.274C167.915 144.673 168.004 144.137 168.182 143.668C168.359 143.194 168.601 142.793 168.906 142.465C169.212 142.137 169.558 141.888 169.945 141.72C170.333 141.551 170.734 141.467 171.148 141.467C171.677 141.467 172.133 141.558 172.516 141.74C172.903 141.923 173.22 142.178 173.466 142.506C173.712 142.829 173.894 143.212 174.013 143.654C174.131 144.092 174.19 144.57 174.19 145.09V145.657H168.667V144.625H172.926V144.529C172.908 144.201 172.839 143.882 172.721 143.572C172.607 143.262 172.424 143.007 172.174 142.807C171.923 142.606 171.581 142.506 171.148 142.506C170.861 142.506 170.597 142.567 170.355 142.69C170.114 142.809 169.907 142.987 169.733 143.224C169.56 143.461 169.426 143.75 169.33 144.092C169.234 144.434 169.187 144.828 169.187 145.274V145.562C169.187 145.912 169.234 146.243 169.33 146.553C169.43 146.858 169.574 147.127 169.761 147.359C169.952 147.592 170.182 147.774 170.451 147.906C170.725 148.038 171.035 148.104 171.381 148.104C171.827 148.104 172.206 148.013 172.516 147.831C172.826 147.649 173.097 147.405 173.329 147.1L174.095 147.708C173.935 147.95 173.732 148.18 173.486 148.398C173.24 148.617 172.937 148.795 172.577 148.932C172.222 149.068 171.8 149.137 171.312 149.137ZM176.521 141.604L178.142 144.297L179.782 141.604H181.266L178.846 145.254L181.341 149H179.878L178.169 146.225L176.46 149H174.99L177.479 145.254L175.065 141.604H176.521ZM185.709 141.604V142.574H181.71V141.604H185.709ZM183.063 139.806H184.328V147.168C184.328 147.419 184.367 147.608 184.444 147.735C184.522 147.863 184.622 147.947 184.745 147.988C184.868 148.029 185 148.05 185.142 148.05C185.246 148.05 185.356 148.041 185.47 148.022C185.588 148 185.677 147.981 185.736 147.968L185.743 149C185.643 149.032 185.511 149.062 185.347 149.089C185.187 149.121 184.993 149.137 184.766 149.137C184.456 149.137 184.171 149.075 183.911 148.952C183.651 148.829 183.444 148.624 183.289 148.337C183.139 148.045 183.063 147.653 183.063 147.161V139.806ZM196.551 139.047H197.863V145.78C197.863 146.528 197.697 147.15 197.364 147.646C197.032 148.143 196.59 148.517 196.038 148.768C195.491 149.014 194.896 149.137 194.254 149.137C193.579 149.137 192.969 149.014 192.422 148.768C191.88 148.517 191.449 148.143 191.13 147.646C190.815 147.15 190.658 146.528 190.658 145.78V139.047H191.964V145.78C191.964 146.3 192.06 146.728 192.251 147.065C192.442 147.403 192.709 147.653 193.051 147.817C193.397 147.981 193.798 148.063 194.254 148.063C194.714 148.063 195.115 147.981 195.457 147.817C195.803 147.653 196.072 147.403 196.264 147.065C196.455 146.728 196.551 146.3 196.551 145.78V139.047ZM201.008 143.183V149H199.743V141.604H200.939L201.008 143.183ZM200.707 145.021L200.181 145.001C200.185 144.495 200.26 144.028 200.406 143.6C200.552 143.167 200.757 142.791 201.021 142.472C201.286 142.153 201.6 141.907 201.965 141.733C202.334 141.556 202.742 141.467 203.188 141.467C203.553 141.467 203.881 141.517 204.173 141.617C204.465 141.713 204.713 141.868 204.918 142.082C205.128 142.296 205.287 142.574 205.396 142.916C205.506 143.253 205.561 143.666 205.561 144.153V149H204.289V144.14C204.289 143.752 204.232 143.442 204.118 143.21C204.004 142.973 203.838 142.802 203.619 142.697C203.4 142.588 203.132 142.533 202.812 142.533C202.498 142.533 202.211 142.599 201.951 142.731C201.696 142.864 201.475 143.046 201.288 143.278C201.106 143.511 200.962 143.777 200.857 144.078C200.757 144.374 200.707 144.689 200.707 145.021ZM207.475 138.5H208.746V147.564L208.637 149H207.475V138.5ZM213.743 145.24V145.384C213.743 145.922 213.679 146.421 213.552 146.881C213.424 147.337 213.237 147.733 212.991 148.07C212.745 148.408 212.444 148.67 212.089 148.856C211.733 149.043 211.326 149.137 210.865 149.137C210.396 149.137 209.983 149.057 209.628 148.897C209.277 148.733 208.981 148.499 208.739 148.193C208.498 147.888 208.304 147.519 208.158 147.086C208.017 146.653 207.919 146.165 207.864 145.623V144.994C207.919 144.447 208.017 143.957 208.158 143.524C208.304 143.091 208.498 142.722 208.739 142.417C208.981 142.107 209.277 141.872 209.628 141.713C209.979 141.549 210.387 141.467 210.852 141.467C211.316 141.467 211.729 141.558 212.089 141.74C212.449 141.918 212.75 142.173 212.991 142.506C213.237 142.839 213.424 143.237 213.552 143.702C213.679 144.162 213.743 144.675 213.743 145.24ZM212.472 145.384V145.24C212.472 144.871 212.438 144.525 212.369 144.201C212.301 143.873 212.191 143.586 212.041 143.34C211.891 143.089 211.692 142.893 211.446 142.752C211.2 142.606 210.897 142.533 210.537 142.533C210.218 142.533 209.94 142.588 209.703 142.697C209.471 142.807 209.272 142.955 209.108 143.142C208.944 143.324 208.81 143.534 208.705 143.771C208.605 144.003 208.53 144.244 208.479 144.495V146.143C208.552 146.462 208.671 146.769 208.835 147.065C209.004 147.357 209.227 147.596 209.505 147.783C209.787 147.97 210.136 148.063 210.551 148.063C210.893 148.063 211.184 147.995 211.426 147.858C211.672 147.717 211.87 147.523 212.021 147.277C212.175 147.031 212.289 146.746 212.362 146.423C212.435 146.099 212.472 145.753 212.472 145.384ZM215.008 145.384V145.227C215.008 144.693 215.085 144.199 215.24 143.743C215.395 143.283 215.618 142.884 215.91 142.547C216.202 142.205 216.555 141.941 216.97 141.754C217.384 141.562 217.849 141.467 218.364 141.467C218.884 141.467 219.351 141.562 219.766 141.754C220.185 141.941 220.54 142.205 220.832 142.547C221.128 142.884 221.354 143.283 221.509 143.743C221.664 144.199 221.741 144.693 221.741 145.227V145.384C221.741 145.917 221.664 146.411 221.509 146.867C221.354 147.323 221.128 147.722 220.832 148.063C220.54 148.401 220.187 148.665 219.772 148.856C219.362 149.043 218.897 149.137 218.378 149.137C217.858 149.137 217.391 149.043 216.977 148.856C216.562 148.665 216.206 148.401 215.91 148.063C215.618 147.722 215.395 147.323 215.24 146.867C215.085 146.411 215.008 145.917 215.008 145.384ZM216.272 145.227V145.384C216.272 145.753 216.316 146.102 216.402 146.43C216.489 146.753 216.619 147.04 216.792 147.291C216.97 147.542 217.191 147.74 217.455 147.886C217.719 148.027 218.027 148.098 218.378 148.098C218.724 148.098 219.027 148.027 219.287 147.886C219.551 147.74 219.77 147.542 219.943 147.291C220.117 147.04 220.246 146.753 220.333 146.43C220.424 146.102 220.47 145.753 220.47 145.384V145.227C220.47 144.862 220.424 144.518 220.333 144.194C220.246 143.866 220.114 143.577 219.937 143.326C219.763 143.071 219.545 142.87 219.28 142.725C219.021 142.579 218.715 142.506 218.364 142.506C218.018 142.506 217.713 142.579 217.448 142.725C217.188 142.87 216.97 143.071 216.792 143.326C216.619 143.577 216.489 143.866 216.402 144.194C216.316 144.518 216.272 144.862 216.272 145.227ZM224.031 141.604L225.651 144.297L227.292 141.604H228.775L226.355 145.254L228.851 149H227.388L225.679 146.225L223.97 149H222.5L224.988 145.254L222.575 141.604H224.031Z" fill="#FF6D00"/>
<path d="M113.492 164.477V166.691C113.492 167.652 113.39 168.481 113.185 169.179C112.979 169.87 112.684 170.438 112.297 170.884C111.916 171.323 111.462 171.648 110.935 171.859C110.407 172.07 109.821 172.176 109.177 172.176C108.661 172.176 108.181 172.111 107.735 171.982C107.29 171.848 106.889 171.64 106.531 171.358C106.18 171.077 105.875 170.723 105.617 170.295C105.365 169.861 105.172 169.346 105.037 168.748C104.902 168.15 104.835 167.465 104.835 166.691V164.477C104.835 163.516 104.938 162.692 105.143 162.007C105.354 161.315 105.649 160.75 106.03 160.311C106.417 159.871 106.874 159.549 107.401 159.344C107.929 159.133 108.515 159.027 109.159 159.027C109.675 159.027 110.152 159.095 110.592 159.229C111.037 159.358 111.438 159.561 111.796 159.836C112.153 160.111 112.458 160.466 112.71 160.899C112.962 161.327 113.155 161.84 113.29 162.438C113.425 163.029 113.492 163.709 113.492 164.477ZM110.952 167.025V164.134C110.952 163.671 110.926 163.267 110.873 162.921C110.826 162.575 110.753 162.282 110.653 162.042C110.554 161.796 110.431 161.597 110.284 161.444C110.138 161.292 109.971 161.181 109.783 161.11C109.596 161.04 109.388 161.005 109.159 161.005C108.872 161.005 108.617 161.061 108.395 161.172C108.178 161.283 107.993 161.462 107.841 161.708C107.688 161.948 107.571 162.271 107.489 162.675C107.413 163.073 107.375 163.56 107.375 164.134V167.025C107.375 167.488 107.398 167.896 107.445 168.247C107.498 168.599 107.574 168.9 107.674 169.152C107.779 169.398 107.902 169.601 108.043 169.759C108.189 169.911 108.356 170.022 108.544 170.093C108.737 170.163 108.948 170.198 109.177 170.198C109.458 170.198 109.707 170.143 109.924 170.031C110.146 169.914 110.334 169.732 110.486 169.486C110.645 169.234 110.762 168.906 110.838 168.502C110.914 168.098 110.952 167.605 110.952 167.025ZM117.597 166.173L115.575 165.689L116.305 159.203H123.494V161.251H118.388L118.071 164.09C118.241 163.99 118.499 163.885 118.845 163.773C119.19 163.656 119.577 163.598 120.005 163.598C120.626 163.598 121.177 163.694 121.657 163.888C122.138 164.081 122.545 164.362 122.879 164.731C123.219 165.101 123.477 165.552 123.652 166.085C123.828 166.618 123.916 167.222 123.916 167.896C123.916 168.464 123.828 169.006 123.652 169.521C123.477 170.031 123.21 170.488 122.853 170.893C122.495 171.291 122.047 171.604 121.508 171.833C120.969 172.062 120.33 172.176 119.592 172.176C119.041 172.176 118.508 172.094 117.992 171.93C117.482 171.766 117.022 171.522 116.612 171.2C116.208 170.878 115.883 170.488 115.637 170.031C115.396 169.568 115.271 169.041 115.259 168.449H117.772C117.808 168.812 117.901 169.126 118.054 169.39C118.212 169.647 118.42 169.847 118.678 169.987C118.936 170.128 119.237 170.198 119.583 170.198C119.905 170.198 120.181 170.137 120.409 170.014C120.638 169.891 120.822 169.721 120.963 169.504C121.104 169.281 121.206 169.023 121.271 168.73C121.341 168.432 121.376 168.109 121.376 167.764C121.376 167.418 121.335 167.104 121.253 166.823C121.171 166.542 121.045 166.299 120.875 166.094C120.705 165.889 120.488 165.73 120.225 165.619C119.967 165.508 119.665 165.452 119.319 165.452C118.851 165.452 118.487 165.525 118.229 165.672C117.978 165.818 117.767 165.985 117.597 166.173ZM130.235 170.778C130.235 170.403 130.364 170.09 130.622 169.838C130.886 169.586 131.234 169.46 131.668 169.46C132.102 169.46 132.447 169.586 132.705 169.838C132.969 170.09 133.101 170.403 133.101 170.778C133.101 171.153 132.969 171.467 132.705 171.719C132.447 171.971 132.102 172.097 131.668 172.097C131.234 172.097 130.886 171.971 130.622 171.719C130.364 171.467 130.235 171.153 130.235 170.778ZM130.235 163.527C130.235 163.152 130.364 162.839 130.622 162.587C130.886 162.335 131.234 162.209 131.668 162.209C132.102 162.209 132.447 162.335 132.705 162.587C132.969 162.839 133.101 163.152 133.101 163.527C133.101 163.902 132.969 164.216 132.705 164.468C132.447 164.72 132.102 164.846 131.668 164.846C131.234 164.846 130.886 164.72 130.622 164.468C130.364 164.216 130.235 163.902 130.235 163.527ZM145.766 159.177V172H143.234V162.095L140.193 163.062V161.066L145.493 159.177H145.766ZM158.686 170.022V172H149.932V170.312L154.071 165.874C154.487 165.411 154.815 165.004 155.056 164.652C155.296 164.295 155.469 163.976 155.574 163.694C155.686 163.407 155.741 163.135 155.741 162.877C155.741 162.49 155.677 162.159 155.548 161.884C155.419 161.603 155.229 161.386 154.977 161.233C154.73 161.081 154.426 161.005 154.062 161.005C153.676 161.005 153.342 161.099 153.061 161.286C152.785 161.474 152.574 161.734 152.428 162.068C152.287 162.402 152.217 162.78 152.217 163.202H149.677C149.677 162.44 149.858 161.743 150.222 161.11C150.585 160.472 151.098 159.965 151.76 159.59C152.422 159.209 153.207 159.019 154.115 159.019C155.012 159.019 155.768 159.165 156.383 159.458C157.004 159.745 157.473 160.161 157.789 160.706C158.111 161.245 158.272 161.89 158.272 162.64C158.272 163.062 158.205 163.475 158.07 163.879C157.936 164.277 157.742 164.676 157.49 165.074C157.244 165.467 156.945 165.865 156.594 166.27C156.242 166.674 155.853 167.093 155.425 167.526L153.201 170.022H158.686ZM164.952 170.778C164.952 170.403 165.081 170.09 165.339 169.838C165.603 169.586 165.951 169.46 166.385 169.46C166.818 169.46 167.164 169.586 167.422 169.838C167.686 170.09 167.817 170.403 167.817 170.778C167.817 171.153 167.686 171.467 167.422 171.719C167.164 171.971 166.818 172.097 166.385 172.097C165.951 172.097 165.603 171.971 165.339 171.719C165.081 171.467 164.952 171.153 164.952 170.778ZM164.952 163.527C164.952 163.152 165.081 162.839 165.339 162.587C165.603 162.335 165.951 162.209 166.385 162.209C166.818 162.209 167.164 162.335 167.422 162.587C167.686 162.839 167.817 163.152 167.817 163.527C167.817 163.902 167.686 164.216 167.422 164.468C167.164 164.72 166.818 164.846 166.385 164.846C165.951 164.846 165.603 164.72 165.339 164.468C165.081 164.216 164.952 163.902 164.952 163.527ZM182.926 164.477V166.691C182.926 167.652 182.823 168.481 182.618 169.179C182.413 169.87 182.117 170.438 181.73 170.884C181.35 171.323 180.896 171.648 180.368 171.859C179.841 172.07 179.255 172.176 178.61 172.176C178.095 172.176 177.614 172.111 177.169 171.982C176.724 171.848 176.322 171.64 175.965 171.358C175.613 171.077 175.309 170.723 175.051 170.295C174.799 169.861 174.605 169.346 174.471 168.748C174.336 168.15 174.269 167.465 174.269 166.691V164.477C174.269 163.516 174.371 162.692 174.576 162.007C174.787 161.315 175.083 160.75 175.464 160.311C175.851 159.871 176.308 159.549 176.835 159.344C177.362 159.133 177.948 159.027 178.593 159.027C179.108 159.027 179.586 159.095 180.025 159.229C180.471 159.358 180.872 159.561 181.229 159.836C181.587 160.111 181.892 160.466 182.144 160.899C182.396 161.327 182.589 161.84 182.724 162.438C182.858 163.029 182.926 163.709 182.926 164.477ZM180.386 167.025V164.134C180.386 163.671 180.359 163.267 180.307 162.921C180.26 162.575 180.187 162.282 180.087 162.042C179.987 161.796 179.864 161.597 179.718 161.444C179.571 161.292 179.404 161.181 179.217 161.11C179.029 161.04 178.821 161.005 178.593 161.005C178.306 161.005 178.051 161.061 177.828 161.172C177.611 161.283 177.427 161.462 177.274 161.708C177.122 161.948 177.005 162.271 176.923 162.675C176.847 163.073 176.809 163.56 176.809 164.134V167.025C176.809 167.488 176.832 167.896 176.879 168.247C176.932 168.599 177.008 168.9 177.107 169.152C177.213 169.398 177.336 169.601 177.477 169.759C177.623 169.911 177.79 170.022 177.978 170.093C178.171 170.163 178.382 170.198 178.61 170.198C178.892 170.198 179.141 170.143 179.357 170.031C179.58 169.914 179.768 169.732 179.92 169.486C180.078 169.234 180.195 168.906 180.271 168.502C180.348 168.098 180.386 167.605 180.386 167.025ZM193.341 159.203V160.565L188.393 172H185.721L190.669 161.181H184.297V159.203H193.341ZM199.669 170.778C199.669 170.403 199.798 170.09 200.056 169.838C200.319 169.586 200.668 169.46 201.102 169.46C201.535 169.46 201.881 169.586 202.139 169.838C202.402 170.09 202.534 170.403 202.534 170.778C202.534 171.153 202.402 171.467 202.139 171.719C201.881 171.971 201.535 172.097 201.102 172.097C200.668 172.097 200.319 171.971 200.056 171.719C199.798 171.467 199.669 171.153 199.669 170.778ZM199.669 163.527C199.669 163.152 199.798 162.839 200.056 162.587C200.319 162.335 200.668 162.209 201.102 162.209C201.535 162.209 201.881 162.335 202.139 162.587C202.402 162.839 202.534 163.152 202.534 163.527C202.534 163.902 202.402 164.216 202.139 164.468C201.881 164.72 201.535 164.846 201.102 164.846C200.668 164.846 200.319 164.72 200.056 164.468C199.798 164.216 199.669 163.902 199.669 163.527ZM217.994 167.219V169.205H208.774L208.651 167.667L213.986 159.203H215.999L213.819 162.851L211.165 167.219H217.994ZM216.544 159.203V172H214.013V159.203H216.544ZM221.747 166.173L219.726 165.689L220.455 159.203H227.645V161.251H222.538L222.222 164.09C222.392 163.99 222.649 163.885 222.995 163.773C223.341 163.656 223.728 163.598 224.155 163.598C224.776 163.598 225.327 163.694 225.808 163.888C226.288 164.081 226.695 164.362 227.029 164.731C227.369 165.101 227.627 165.552 227.803 166.085C227.979 166.618 228.066 167.222 228.066 167.896C228.066 168.464 227.979 169.006 227.803 169.521C227.627 170.031 227.36 170.488 227.003 170.893C226.646 171.291 226.197 171.604 225.658 171.833C225.119 172.062 224.48 172.176 223.742 172.176C223.191 172.176 222.658 172.094 222.143 171.93C221.633 171.766 221.173 171.522 220.763 171.2C220.358 170.878 220.033 170.488 219.787 170.031C219.547 169.568 219.421 169.041 219.409 168.449H221.923C221.958 168.812 222.052 169.126 222.204 169.39C222.362 169.647 222.57 169.847 222.828 169.987C223.086 170.128 223.388 170.198 223.733 170.198C224.056 170.198 224.331 170.137 224.56 170.014C224.788 169.891 224.973 169.721 225.113 169.504C225.254 169.281 225.356 169.023 225.421 168.73C225.491 168.432 225.526 168.109 225.526 167.764C225.526 167.418 225.485 167.104 225.403 166.823C225.321 166.542 225.195 166.299 225.025 166.094C224.855 165.889 224.639 165.73 224.375 165.619C224.117 165.508 223.815 165.452 223.47 165.452C223.001 165.452 222.638 165.525 222.38 165.672C222.128 165.818 221.917 165.985 221.747 166.173Z" fill="white"/>
<defs>
<radialGradient id="paint0_radial_2547_5147" cx="0" cy="0" r="1" gradientUnits="userSpaceOnUse" gradientTransform="translate(140.759 165.427) rotate(29.9158) scale(68.3336 59.078)">
<stop offset="0.0142738" stop-color="#F2C94C"/>
<stop offset="0.8226" stop-color="#0F133B" stop-opacity="0"/>
</radialGradient>
<radialGradient id="paint1_radial_2547_5147" cx="0" cy="0" r="1" gradientUnits="userSpaceOnUse" gradientTransform="translate(231.237 253.103) rotate(29.9158) scale(68.3336 59.078)">
<stop offset="0.0142738" stop-color="#F2C94C"/>
<stop offset="0.8226" stop-color="#0F133B" stop-opacity="0"/>
</radialGradient>
<radialGradient id="paint2_radial_2547_5147" cx="0" cy="0" r="1" gradientUnits="userSpaceOnUse" gradientTransform="translate(64.4036 209.203) rotate(29.9158) scale(52.54 45.4236)">
<stop offset="0.0142738" stop-color="#F2C94C"/>
<stop offset="0.8226" stop-color="#0F133B" stop-opacity="0"/>
</radialGradient>
<radialGradient id="paint3_radial_2547_5147" cx="0" cy="0" r="1" gradientUnits="userSpaceOnUse" gradientTransform="translate(141.504 167.159) scale(7.64682 7.62067)">
<stop offset="0.0225145" stop-color="#F2C94C"/>
<stop offset="0.8226" stop-color="#180D5B" stop-opacity="0"/>
</radialGradient>
<radialGradient id="paint4_radial_2547_5147" cx="0" cy="0" r="1" gradientUnits="userSpaceOnUse" gradientTransform="translate(64.406 211.61) scale(7.64682 7.62067)">
<stop offset="0.0225145" stop-color="#F2C94C"/>
<stop offset="0.8226" stop-color="#180D5B" stop-opacity="0"/>
</radialGradient>
<radialGradient id="paint5_radial_2547_5147" cx="0" cy="0" r="1" gradientUnits="userSpaceOnUse" gradientTransform="translate(231.758 252.952) scale(7.64682 7.62067)">
<stop offset="0.0142738" stop-color="#F2C94C"/>
<stop offset="0.8226" stop-color="#0F133B" stop-opacity="0"/>
</radialGradient>
<radialGradient id="paint6_radial_2547_5147" cx="0" cy="0" r="1" gradientUnits="userSpaceOnUse" gradientTransform="translate(245.934 244.627) scale(7.64682 7.62067)">
<stop offset="0.0142738" stop-color="#F2C94C"/>
<stop offset="0.8226" stop-color="#0F133B" stop-opacity="0"/>
</radialGradient>
<radialGradient id="paint7_radial_2547_5147" cx="0" cy="0" r="1" gradientUnits="userSpaceOnUse" gradientTransform="translate(260.109 236.428) scale(7.64682 7.62067)">
<stop offset="0.0142738" stop-color="#F2C94C"/>
<stop offset="0.8226" stop-color="#0F133B" stop-opacity="0"/>
</radialGradient>
<linearGradient id="paint8_linear_2547_5147" x1="29.7591" y1="184.848" x2="219.906" y2="184.848" gradientUnits="userSpaceOnUse">
<stop stop-color="#42E8E0"/>
<stop offset="0.3445" stop-color="#2F87A5"/>
<stop offset="0.564" stop-color="#255385"/>
<stop offset="0.7534" stop-color="#1E2D6E"/>
<stop offset="0.905" stop-color="#1A1660"/>
<stop offset="1" stop-color="#180D5B"/>
</linearGradient>
<linearGradient id="paint9_linear_2547_5147" x1="166.867" y1="184.844" x2="261.94" y2="184.844" gradientUnits="userSpaceOnUse">
<stop stop-color="#2B237C"/>
<stop offset="1" stop-color="#180D5B"/>
</linearGradient>
<linearGradient id="paint10_linear_2547_5147" x1="71.7915" y1="163.915" x2="261.952" y2="163.915" gradientUnits="userSpaceOnUse">
<stop stop-color="#F2994A"/>
<stop offset="0.1022" stop-color="#F2994A"/>
<stop offset="0.3445" stop-color="#F2C44C"/>
<stop offset="0.564" stop-color="#F2CD4C"/>
<stop offset="0.7534" stop-color="#1E2D6E"/>
<stop offset="0.905" stop-color="#1A1660"/>
<stop offset="1" stop-color="#180D5B"/>
</linearGradient>
<linearGradient id="paint11_linear_2547_5147" x1="71.7905" y1="163.917" x2="168.844" y2="163.917" gradientUnits="userSpaceOnUse">
<stop stop-color="#42E8E0"/>
<stop offset="0.1022" stop-color="#3CCACE"/>
<stop offset="0.3445" stop-color="#2F87A5"/>
<stop offset="0.564" stop-color="#255385"/>
<stop offset="0.7534" stop-color="#1E2D6E"/>
<stop offset="0.905" stop-color="#1A1660"/>
<stop offset="1" stop-color="#180D5B"/>
</linearGradient>
<linearGradient id="paint12_linear_2547_5147" x1="97.6535" y1="219.058" x2="256.491" y2="114.882" gradientUnits="userSpaceOnUse">
<stop stop-color="#F2C94C"/>
<stop offset="0.1022" stop-color="#F2C44C"/>
<stop offset="0.3445" stop-color="#F2C44C"/>
<stop offset="0.564" stop-color="#F2B04C"/>
<stop offset="0.7534" stop-color="#F2B94A"/>
<stop offset="0.905" stop-color="#F2AF4A"/>
<stop offset="1" stop-color="#F2994A"/>
</linearGradient>
<linearGradient id="paint13_linear_2547_5147" x1="29.7591" y1="127.57" x2="219.906" y2="127.57" gradientUnits="userSpaceOnUse">
<stop stop-color="#42E8E0"/>
<stop offset="0.1022" stop-color="#3CCACE"/>
<stop offset="0.3445" stop-color="#2F87A5"/>
<stop offset="0.564" stop-color="#255385"/>
<stop offset="0.7534" stop-color="#1E2D6E"/>
<stop offset="0.905" stop-color="#F2994A"/>
<stop offset="1" stop-color="#F2994A"/>
</linearGradient>
<linearGradient id="paint14_linear_2547_5147" x1="166.867" y1="127.566" x2="261.94" y2="127.566" gradientUnits="userSpaceOnUse">
<stop stop-color="#2B237C"/>
<stop offset="1" stop-color="#180D5B"/>
</linearGradient>
<linearGradient id="paint15_linear_2547_5147" x1="71.7915" y1="106.636" x2="261.952" y2="106.636" gradientUnits="userSpaceOnUse">
<stop stop-color="#F2C94C"/>
<stop offset="0.7534" stop-color="#FF993C"/>
<stop offset="0.905" stop-color="#F77F11"/>
<stop offset="1" stop-color="#E97205"/>
</linearGradient>
<linearGradient id="paint16_linear_2547_5147" x1="71.7905" y1="106.639" x2="168.844" y2="106.639" gradientUnits="userSpaceOnUse">
<stop stop-color="#F2C94C"/>
<stop offset="0.1022" stop-color="#EAC040"/>
<stop offset="0.3445" stop-color="#EEC13A"/>
<stop offset="0.564" stop-color="#F9C833"/>
<stop offset="0.7534" stop-color="#F2B04C"/>
<stop offset="0.905" stop-color="#F2A54A"/>
<stop offset="1" stop-color="#F2994A"/>
</linearGradient>
<linearGradient id="paint17_linear_2547_5147" x1="97.6545" y1="161.78" x2="256.492" y2="57.6041" gradientUnits="userSpaceOnUse">
<stop stop-color="#F2C94C"/>
<stop offset="0.1022" stop-color="#FFDB6F"/>
<stop offset="0.3445" stop-color="#F0DB9B"/>
<stop offset="0.564" stop-color="#EFC353"/>
<stop offset="0.7534" stop-color="#F2A54A"/>
<stop offset="0.905" stop-color="#F29B4A"/>
<stop offset="1" stop-color="#F2994A"/>
</linearGradient>
<radialGradient id="paint18_radial_2547_5147" cx="0" cy="0" r="1" gradientUnits="userSpaceOnUse" gradientTransform="translate(140.759 48.9787) rotate(29.9158) scale(68.3336 59.078)">
<stop stop-color="#EFF24C"/>
<stop offset="1" stop-color="#EFF24C" stop-opacity="0"/>
</radialGradient>
<radialGradient id="paint19_radial_2547_5147" cx="0" cy="0" r="1" gradientUnits="userSpaceOnUse" gradientTransform="translate(231.237 136.654) rotate(29.9158) scale(68.3336 59.078)">
<stop offset="0.0142738" stop-color="#F2C94C"/>
<stop offset="0.8226" stop-color="#0F133B" stop-opacity="0"/>
</radialGradient>
<radialGradient id="paint20_radial_2547_5147" cx="0" cy="0" r="1" gradientUnits="userSpaceOnUse" gradientTransform="translate(64.4037 92.7567) rotate(29.9158) scale(52.5399 45.4235)">
<stop offset="0.0142738" stop-color="#F2C94C"/>
<stop offset="0.8226" stop-color="#0F133B" stop-opacity="0"/>
</radialGradient>
<radialGradient id="paint21_radial_2547_5147" cx="0" cy="0" r="1" gradientUnits="userSpaceOnUse" gradientTransform="translate(141.504 50.7105) scale(7.64682 7.62067)">
<stop stop-color="#F2994A"/>
<stop offset="1" stop-color="#F9FC6E" stop-opacity="0"/>
</radialGradient>
<radialGradient id="paint22_radial_2547_5147" cx="0" cy="0" r="1" gradientUnits="userSpaceOnUse" gradientTransform="translate(64.406 95.1614) scale(7.64682 7.62067)">
<stop stop-color="#F2C94C"/>
<stop offset="0.8226" stop-color="#0F133B" stop-opacity="0"/>
</radialGradient>
<radialGradient id="paint23_radial_2547_5147" cx="0" cy="0" r="1" gradientUnits="userSpaceOnUse" gradientTransform="translate(231.758 136.504) scale(7.64682 7.62067)">
<stop offset="0.0142738" stop-color="#F2C94C"/>
<stop offset="0.8226" stop-color="#0F133B" stop-opacity="0"/>
</radialGradient>
<radialGradient id="paint24_radial_2547_5147" cx="0" cy="0" r="1" gradientUnits="userSpaceOnUse" gradientTransform="translate(245.934 128.179) scale(7.64682 7.62067)">
<stop offset="0.0142738" stop-color="#F2C94C"/>
<stop offset="0.8226" stop-color="#0F133B" stop-opacity="0"/>
</radialGradient>
<radialGradient id="paint25_radial_2547_5147" cx="0" cy="0" r="1" gradientUnits="userSpaceOnUse" gradientTransform="translate(260.109 119.981) scale(7.64682 7.62067)">
<stop offset="0.0142738" stop-color="#F2C94C"/>
<stop offset="0.8226" stop-color="#0F133B" stop-opacity="0"/>
</radialGradient>
</defs>
</svg>
