<svg width="24" height="24" viewBox="0 0 24 24" fill="none" xmlns="http://www.w3.org/2000/svg">
<path d="M18.75 0H5.25C2.3505 0 0 2.3505 0 5.25V18.75C0 21.6495 2.3505 24 5.25 24H18.75C21.6495 24 24 21.6495 24 18.75V5.25C24 2.3505 21.6495 0 18.75 0Z" fill="#FF4B55"/>
<path d="M12.214 6.87328L13.4404 10.5506L17.3168 10.5806C17.5335 10.5823 17.6234 10.8589 17.449 10.9877L14.3307 13.2904L15.4999 16.9863C15.5653 17.193 15.33 17.3639 15.1537 17.2379L12 14.9838L8.84636 17.2379C8.67001 17.364 8.4347 17.193 8.50009 16.9863L9.66934 13.2905L6.55098 10.9877C6.37661 10.859 6.46651 10.5824 6.68326 10.5807L10.5596 10.5506L11.786 6.87333C11.8546 6.66764 12.1454 6.66764 12.214 6.87328Z" fill="#FFE15A"/>
</svg>
