<svg width="24" height="24" fill="none" xmlns="http://www.w3.org/2000/svg"><mask id="Iconly/Light-Outline/Image__a" style="mask-type:alpha" maskUnits="userSpaceOnUse" x="2" y="2" width="20" height="20"><path fill-rule="evenodd" clip-rule="evenodd" d="M2 2h19.96v19.95H2V2Z" fill="#fff"/></mask><g mask="url(#Iconly/Light-Outline/Image__a)"><path fill-rule="evenodd" clip-rule="evenodd" d="M7.65 3.5C5.13 3.5 3.5 5.227 3.5 7.899v8.152c0 2.673 1.63 4.399 4.15 4.399h8.65c2.527 0 4.16-1.726 4.16-4.399V7.899c0-2.672-1.633-4.399-4.16-4.399H7.65Zm8.65 18.45H7.65C4.27 21.95 2 19.579 2 16.051V7.899C2 4.371 4.27 2 7.65 2h8.65c3.385 0 5.66 2.371 5.66 5.899v8.152c0 3.528-2.275 5.899-5.66 5.899Z" fill="#4D4D51"/></g><path fill-rule="evenodd" clip-rule="evenodd" d="M5.281 17.18a.748.748 0 0 1-.544-1.265l1.528-1.613a2.156 2.156 0 0 1 3.037-.09l.958.971c.267.27.701.275.97.011.1-.119 2.278-2.764 2.278-2.764a2.427 2.427 0 0 1 1.647-.876 2.448 2.448 0 0 1 1.784.545c.043.035.082.07 2.278 2.324a.75.75 0 1 1-1.074 1.046s-2.049-2.103-2.195-2.245a.92.92 0 0 0-.649-.177.933.933 0 0 0-.632.337c-2.324 2.82-2.352 2.846-2.39 2.883a2.184 2.184 0 0 1-3.086-.032s-.93-.944-.946-.963c-.23-.214-.643-.2-.89.061l-1.53 1.613a.747.747 0 0 1-.544.234Zm3.277-9.051a1.004 1.004 0 1 0 .002 2.009 1.004 1.004 0 0 0-.002-2.01m0 3.51a2.507 2.507 0 0 1-2.503-2.505 2.506 2.506 0 0 1 2.504-2.504 2.509 2.509 0 0 1 2.505 2.504 2.508 2.508 0 0 1-2.505 2.505" fill="#4D4D51"/></svg>