<svg width="24" height="24" fill="none" xmlns="http://www.w3.org/2000/svg"><path d="M9 2.25H4.5A2.25 2.25 0 0 0 2.25 4.5V9a2.25 2.25 0 0 0 2.25 2.25H9A2.25 2.25 0 0 0 11.25 9V4.5A2.25 2.25 0 0 0 9 2.25Zm10.5 0H15a2.25 2.25 0 0 0-2.25 2.25V9A2.25 2.25 0 0 0 15 11.25h4.5A2.25 2.25 0 0 0 21.75 9V4.5a2.25 2.25 0 0 0-2.25-2.25ZM9 12.75H4.5A2.25 2.25 0 0 0 2.25 15v4.5a2.25 2.25 0 0 0 2.25 2.25H9a2.25 2.25 0 0 0 2.25-2.25V15A2.25 2.25 0 0 0 9 12.75Zm10.5 0H15A2.25 2.25 0 0 0 12.75 15v4.5A2.25 2.25 0 0 0 15 21.75h4.5a2.25 2.25 0 0 0 2.25-2.25V15a2.25 2.25 0 0 0-2.25-2.25Z" fill="#0391FE"/></svg>