<svg width="24" height="24" fill="none" xmlns="http://www.w3.org/2000/svg"><path d="M21 9V3.75a.752.752 0 0 0-.75-.75H15a.752.752 0 0 0-.75.75V9c0 .412.338.75.75.75h5.25c.413 0 .75-.338.75-.75Zm-.75-7.5a2.247 2.247 0 0 1 2.25 2.25V9a2.247 2.247 0 0 1-2.25 2.25H15A2.247 2.247 0 0 1 12.75 9V3.75A2.247 2.247 0 0 1 15 1.5h5.25ZM21 20.25V15a.752.752 0 0 0-.75-.75H15a.752.752 0 0 0-.75.75v5.25c0 .413.338.75.75.75h5.25c.413 0 .75-.337.75-.75Zm-.75-7.5A2.247 2.247 0 0 1 22.5 15v5.25a2.247 2.247 0 0 1-2.25 2.25H15a2.247 2.247 0 0 1-2.25-2.25V15A2.247 2.247 0 0 1 15 12.75h5.25ZM9 9.75c.412 0 .75-.338.75-.75V3.75A.752.752 0 0 0 9 3H3.75a.752.752 0 0 0-.75.75V9c0 .412.337.75.75.75H9ZM9 1.5a2.247 2.247 0 0 1 2.25 2.25V9A2.247 2.247 0 0 1 9 11.25H3.75A2.247 2.247 0 0 1 1.5 9V3.75A2.247 2.247 0 0 1 3.75 1.5H9ZM9 21c.412 0 .75-.337.75-.75V15a.752.752 0 0 0-.75-.75H3.75A.752.752 0 0 0 3 15v5.25c0 .413.337.75.75.75H9Zm0-8.25A2.247 2.247 0 0 1 11.25 15v5.25A2.247 2.247 0 0 1 9 22.5H3.75a2.247 2.247 0 0 1-2.25-2.25V15a2.247 2.247 0 0 1 2.25-2.25H9Z" fill="#4D4D51"/></svg>