<svg width="24" height="24" viewBox="0 0 24 24" fill="none" xmlns="http://www.w3.org/2000/svg">
    <path d="M9 2.25H4.5C3.25736 2.25 2.25 3.25736 2.25 4.5V9C2.25 10.2426 3.25736 11.25 4.5 11.25H9C10.2426 11.25 11.25 10.2426 11.25 9V4.5C11.25 3.25736 10.2426 2.25 9 2.25Z" fill="#4D4D51"/>
    <path d="M19.5 2.25H15C13.7574 2.25 12.75 3.25736 12.75 4.5V9C12.75 10.2426 13.7574 11.25 15 11.25H19.5C20.7426 11.25 21.75 10.2426 21.75 9V4.5C21.75 3.25736 20.7426 2.25 19.5 2.25Z" fill="#4D4D51"/>
    <path d="M9 12.75H4.5C3.25736 12.75 2.25 13.7574 2.25 15V19.5C2.25 20.7426 3.25736 21.75 4.5 21.75H9C10.2426 21.75 11.25 20.7426 11.25 19.5V15C11.25 13.7574 10.2426 12.75 9 12.75Z" fill="#4D4D51"/>
    <path d="M19.5 12.75H15C13.7574 12.75 12.75 13.7574 12.75 15V19.5C12.75 20.7426 13.7574 21.75 15 21.75H19.5C20.7426 21.75 21.75 20.7426 21.75 19.5V15C21.75 13.7574 20.7426 12.75 19.5 12.75Z" fill="#4D4D51"/>
</svg>
