<svg width="20" height="20" viewBox="0 0 20 20" fill="none" xmlns="http://www.w3.org/2000/svg">
<path d="M13.491 1.66666H6.50768C3.47435 1.66666 1.66602 3.47499 1.66602 6.50832V13.4833C1.66602 16.525 3.47435 18.3333 6.50768 18.3333H13.4827C16.516 18.3333 18.3243 16.525 18.3243 13.4917V6.50832C18.3327 3.47499 16.5243 1.66666 13.491 1.66666ZM13.641 12.1917L11.791 14.0417C11.341 14.4917 10.7577 14.7083 10.1743 14.7083C9.59102 14.7083 8.99935 14.4833 8.55768 14.0417C7.66602 13.15 7.66602 11.6917 8.55768 10.8L9.73268 9.62499C9.97435 9.38332 10.3743 9.38332 10.616 9.62499C10.8577 9.86666 10.8577 10.2667 10.616 10.5083L9.44102 11.6833C9.03268 12.0917 9.03268 12.75 9.44102 13.1583C9.84935 13.5667 10.5077 13.5667 10.916 13.1583L12.766 11.3083C13.2743 10.8 13.5577 10.1167 13.5577 9.39166C13.5577 8.66666 13.2743 7.99166 12.766 7.47499C11.741 6.44999 9.95768 6.44999 8.93268 7.47499L6.90768 9.49999C6.04102 10.3667 6.04102 11.7833 6.90768 12.6583C7.14935 12.9 7.14935 13.3 6.90768 13.5417C6.66602 13.7833 6.26602 13.7833 6.02435 13.5417C4.66602 12.1833 4.66602 9.97499 6.02435 8.61666L8.04102 6.59999C8.79102 5.84999 9.78268 5.44166 10.841 5.44166C11.8993 5.44166 12.891 5.84999 13.641 6.59999C14.391 7.34999 14.7993 8.34166 14.7993 9.39999C14.7993 10.4583 14.391 11.45 13.641 12.1917Z" fill="#0391FE"/>
</svg>
