<svg width="24" height="24" fill="none" xmlns="http://www.w3.org/2000/svg"><path d="M17.028 0H6.972C2.604 0 0 2.604 0 6.972v10.056C0 21.396 2.604 24 6.972 24h10.056C21.396 24 24 21.396 24 17.028V6.972C24 2.604 21.396 0 17.028 0ZM9.564 15.48l-2.7 2.7a.89.89 0 0 1-.636.264.87.87 0 0 1-.636-.264l-.9-.9a.884.884 0 0 1 0-1.272.905.905 0 0 1 1.272 0l.264.264 2.064-2.064a.905.905 0 0 1 1.272 0 .905.905 0 0 1 0 1.272Zm0-8.4-2.7 2.7a.89.89 0 0 1-.636.264.87.87 0 0 1-.636-.264l-.9-.9a.884.884 0 0 1 0-1.272.905.905 0 0 1 1.272 0l.264.264 2.064-2.064a.905.905 0 0 1 1.272 0 .905.905 0 0 1 0 1.272Zm9.108 10.464h-6.3a.907.907 0 0 1-.9-.9c0-.492.408-.9.9-.9h6.3c.504 0 .9.408.9.9 0 .492-.396.9-.9.9Zm0-8.4h-6.3a.907.907 0 0 1-.9-.9c0-.492.408-.9.9-.9h6.3c.504 0 .9.408.9.9 0 .492-.396.9-.9.9Z" fill="#0391FE"/></svg>